<?xml version="1.0" encoding="iso-8859-1"?>
<!-- Generator: Adobe Illustrator 19.0.0, SVG Export Plug-In . SVG Version: 6.00 Build 0)  -->
<svg version="1.1" id="Capa_1" xmlns="http://www.w3.org/2000/svg" xmlns:xlink="http://www.w3.org/1999/xlink" x="0px" y="0px"
	 viewBox="0 0 60 60" style="enable-background:new 0 0 60 60;" xml:space="preserve">
<g>
	<path d="M14.47,14.353c-3.009-0.445-6.108,0.65-8.159,2.875c-1.7,1.845-2.524,4.23-2.321,6.716
		c0.137,1.659,0.615,3.477,1.423,5.403c0.311,1.084,5.188,18.528,0.394,24.936C4.679,55.79,3.106,56.522,1,56.522
		c-0.508,0-0.936,0.381-0.993,0.886c-0.059,0.504,0.271,0.973,0.766,1.088c0.044,0.01,1.095,0.251,2.756,0.251
		c2.995,0,7.507-0.751,11.988-4.332c2.204-1.76,3.97-3.981,5.249-6.601c1.606-3.29,2.212-7.11,1.752-11.047
		c-0.333-2.86-0.528-8.023,1.913-10.465c1.785-1.784,1.34-4.604,0.015-6.353C22.935,17.956,20.259,15.208,14.47,14.353z"/>
	<path d="M59,56.522c-2.106,0-3.679-0.732-4.806-2.239c-4.795-6.408,0.083-23.852,0.394-24.936c0.808-1.926,1.286-3.744,1.423-5.403
		c0.203-2.486-0.621-4.871-2.321-6.716c-2.051-2.226-5.145-3.322-8.16-2.875c-5.788,0.854-8.465,3.603-9.975,5.596
		c-1.325,1.748-1.771,4.568,0.015,6.353c2.441,2.442,2.246,7.604,1.913,10.464c-0.46,3.938,0.146,7.757,1.752,11.047
		c1.279,2.62,3.045,4.841,5.249,6.601c4.481,3.581,8.993,4.332,11.988,4.332c1.661,0,2.712-0.241,2.756-0.251
		c0.494-0.115,0.824-0.583,0.766-1.088C59.935,56.903,59.508,56.522,59,56.522z"/>
	<path d="M22.551,8.253c1.511,0.464,3.991,1,7.398,1s5.888-0.536,7.398-1c-1.511-0.464-3.991-1-7.398-1S24.061,7.788,22.551,8.253z"
		/>
	<path d="M45.616,8.253c0-3.991-6.735-7-15.667-7s-15.667,3.009-15.667,7s6.735,7,15.667,7S45.616,12.244,45.616,8.253z
		 M39.699,9.51c-1.15,0.524-4.404,1.743-9.75,1.743s-8.6-1.219-9.75-1.743c-0.49-0.223-0.808-0.716-0.808-1.257
		s0.317-1.034,0.808-1.257c1.15-0.524,4.404-1.743,9.75-1.743s8.6,1.219,9.75,1.743c0.49,0.223,0.808,0.716,0.808,1.257
		S40.189,9.287,39.699,9.51z"/>
</g>
<g>
</g>
<g>
</g>
<g>
</g>
<g>
</g>
<g>
</g>
<g>
</g>
<g>
</g>
<g>
</g>
<g>
</g>
<g>
</g>
<g>
</g>
<g>
</g>
<g>
</g>
<g>
</g>
<g>
</g>
</svg>
