<?xml version="1.0" encoding="iso-8859-1"?>
<!-- Generator: Adobe Illustrator 16.0.0, SVG Export Plug-In . SVG Version: 6.00 Build 0)  -->
<!DOCTYPE svg PUBLIC "-//W3C//DTD SVG 1.1//EN" "http://www.w3.org/Graphics/SVG/1.1/DTD/svg11.dtd">
<svg version="1.1" id="Capa_1" xmlns="http://www.w3.org/2000/svg" xmlns:xlink="http://www.w3.org/1999/xlink" x="0px" y="0px"
	 width="46.173px" height="46.174px" viewBox="0 0 46.173 46.174" style="enable-background:new 0 0 46.173 46.174;"
	 xml:space="preserve">
<g>
	<g>
		<path d="M45.07,30.391l-3.28-10.6c-0.824-2.668-2.898-4.793-5.546-5.685c-2.19-0.737-4.577-0.563-6.621,0.439
			c0.034-0.313,0.052-0.633,0.052-0.957c0-4.246-2.961-7.7-6.603-7.7c-3.641,0-6.603,3.454-6.603,7.7
			c0,0.318,0.017,0.632,0.05,0.941c-2.035-0.988-4.408-1.156-6.589-0.423c-2.647,0.892-4.721,3.017-5.545,5.685l-3.281,10.6
			c-0.288,0.938-0.026,1.938,0.683,2.611c0.486,0.462,1.113,0.706,1.754,0.706c0.299,0,0.599-0.054,0.89-0.16
			c0.505-0.187,1.044-0.399,1.598-0.639c0.084,0.048,0.175,0.088,0.27,0.12c0.907,0.301,2.176,0.533,3.622,0.533
			c1.724,0,3.699-0.332,5.611-1.273l-2.491,9.357c-0.29,1.086-0.057,2.234,0.629,3.125c0.686,0.894,1.746,1.402,2.871,1.402h13.065
			c1.125,0,2.188-0.51,2.871-1.402c0.687-0.892,0.919-2.045,0.63-3.133l-2.495-9.369c1.922,0.955,3.91,1.291,5.645,1.291
			c1.445,0,2.715-0.232,3.621-0.531c0.096-0.032,0.187-0.072,0.271-0.12c0.553,0.239,1.092,0.452,1.598,0.639
			c0.291,0.108,0.592,0.161,0.889,0.161c0.643,0,1.27-0.244,1.756-0.706C45.096,32.328,45.359,31.329,45.07,30.391z M23.072,8.871
			c1.996,0,3.62,2.116,3.62,4.717c0,2.602-1.624,4.719-3.62,4.719c-1.995,0-3.619-2.117-3.619-4.719
			C19.452,10.986,21.076,8.871,23.072,8.871z M10.157,30.564c0.748-0.576,1.414-1.215,1.929-1.922
			c0.482-0.666,0.335-1.599-0.332-2.082c-0.666-0.484-1.598-0.336-2.083,0.33c-0.9,1.241-2.823,2.486-5.459,3.547l3.021-9.765
			c0.542-1.755,1.906-3.153,3.648-3.739c1.74-0.586,3.674-0.297,5.166,0.773l2.823,2.022l-2.133,8.019
			C14.609,29.979,12.073,30.535,10.157,30.564z M36.5,26.891c-0.484-0.666-1.416-0.815-2.08-0.332
			c-0.668,0.484-0.815,1.418-0.332,2.084c0.514,0.707,1.18,1.346,1.928,1.92c-1.928-0.027-4.483-0.593-6.623-2.859l-2.117-7.958
			l2.852-2.04c1.491-1.07,3.426-1.359,5.166-0.773c1.741,0.586,3.104,1.984,3.647,3.739l3.021,9.765
			C39.325,29.376,37.402,28.13,36.5,26.891z"/>
		<path d="M23.136,5.553c3.203,0,6.942-0.727,6.942-2.777C30.078,0.727,26.338,0,23.136,0c-3.203,0-6.943,0.727-6.943,2.776
			C16.193,4.826,19.933,5.553,23.136,5.553z M23.136,1.988c2.433,0,4.074,0.444,4.727,0.788c-0.651,0.345-2.294,0.789-4.727,0.789
			s-4.076-0.444-4.727-0.789C19.061,2.432,20.703,1.988,23.136,1.988z"/>
	</g>
</g>
<g>
</g>
<g>
</g>
<g>
</g>
<g>
</g>
<g>
</g>
<g>
</g>
<g>
</g>
<g>
</g>
<g>
</g>
<g>
</g>
<g>
</g>
<g>
</g>
<g>
</g>
<g>
</g>
<g>
</g>
</svg>
