<?xml version="1.0" encoding="utf-8"?>
<!-- Svg Vector Icons : http://www.onlinewebfonts.com/icon -->
<!DOCTYPE svg PUBLIC "-//W3C//DTD SVG 1.1//EN" "http://www.w3.org/Graphics/SVG/1.1/DTD/svg11.dtd">
<svg version="1.1" xmlns="http://www.w3.org/2000/svg" xmlns:xlink="http://www.w3.org/1999/xlink" x="0px" y="0px" viewBox="0 0 1000 1000" enable-background="new 0 0 1000 1000" xml:space="preserve">
<metadata> Svg Vector Icons : http://www.onlinewebfonts.com/icon </metadata>
<g><g transform="translate(0.000000,468.000000) scale(0.100000,-0.100000)">
<style>.achievement-svg{fill: goldenrod;} </style>
<path class="achievement-svg" d="M2303.1,4048.8c-181.8-61.2-336.9-116.8-342.6-122.5c-13.4-11.5,55.5-239.3,72.7-239.3c5.7,0,76.6,21.1,153.1,47.9c76.6,26.8,145.5,44,149.3,38.3c5.7-3.8-11.5-59.3-38.3-118.7c-26.8-61.2-72.7-174.2-103.4-250.7c-49.8-130.2-51.7-147.4-28.7-229.7c13.4-49.8,24.9-91.9,28.7-93.8c1.9-1.9,174.2,51.7,379,120.6l375.1,124.4l-38.3,118.7c-23,65.1-42.1,120.6-44,122.5c-1.9,3.8-78.5-21.1-172.3-51.7c-93.8-30.6-172.3-55.5-174.2-51.7c-3.8,3.8,38.3,116.8,91.9,252.7c91.9,239.3,95.7,252.7,74.6,335c-13.4,47.9-28.7,91.9-36.4,97.6C2641.9,4156,2486.9,4110.1,2303.1,4048.8z"/>
<path class="achievement-svg" d="M3484.1,3269.8c-176.1-59.3-325.4-114.8-331.1-122.5c-11.5-11.5,34.4-183.7,59.3-229.7c5.7-7.7,80.4,11.5,170.3,42.1l162.7,55.5l-30.6-70.8c-17.2-38.3-65.1-158.9-109.1-266.1c-72.7-187.6-74.7-199.1-51.7-283.3c13.4-47.9,34.5-86.1,45.9-86.1c17.2,0,721.6,227.8,733.1,239.3c11.5,7.7-74.7,239.3-88,239.3c-7.7,0-88.1-24.9-179.9-55.5c-91.9-32.5-166.5-55.5-166.5-53.6c0,1.9,45.9,120.6,101.4,262.2l103.4,258.4l-30.6,90c-15.3,51.7-38.3,91.9-47.9,90C3813.3,3378.9,3660.2,3329.1,3484.1,3269.8z"/>
<path class="achievement-svg" d="M2194,2534.8l-673.7-229.7l76.6-227.8c44-132.1,86.1-227.8,101.4-227.8c13.4,0,151.2,44,306.2,95.7c155,53.6,285.2,93.8,290.9,90c3.8-5.7-28.7-90-72.7-187.6c-44-99.5-134-325.4-202.9-505.3L1895.4,1017l53.6-166.5c28.7-93.8,63.2-168.4,76.6-168.4c15.3,0,1171.4,386.6,1399.2,468.9c15.3,5.7,0,76.6-53.6,237.3c-44,128.2-84.2,231.6-91.9,231.6c-7.7,0-164.6-51.7-352.2-112.9c-185.7-63.2-338.8-109.1-338.8-105.3c0,5.7,24.9,57.4,55.5,118.7c30.6,59.3,122.5,283.3,202.9,497.7l149.3,388.6l-53.6,172.3c-30.6,95.7-61.3,176.1-67,179.9C2869.7,2760.7,2563.5,2661.1,2194,2534.8z"/>
<path class="achievement-svg" d="M394.8,731.8c-51.7-24.9-126.3-80.4-166.5-126.3c-135.9-160.8-128.2,5.7-128.2-2601.2c0-1538.9,7.7-2371.5,19.1-2417.4c34.5-120.6,134-246.9,248.8-310.1c91.9-51.7,124.4-59.3,248.8-59.3c124.4,0,158.9,7.7,246.9,57.4c99.5,53.6,189.5,153.1,237.3,258.4c15.3,32.5,26.8,331.1,32.5,957l9.6,909.2l1018.3,5.7l1020.2,3.8v-516.8v-516.8h2603.1h2603.1v-350.3c0-419.2,19.1-509.2,139.7-639.3c97.6-105.3,199.1-158.8,329.2-172.2c202.9-21.1,396.2,78.5,503.4,258.4c51.7,90,51.7,91.9,57.4,497.7l5.7,405.8h239.3H9900v1249.9c0,1351.3-3.8,1406.8-105.3,1613.5c-101.4,206.7-331.1,356-669.9,434.5c-170.4,40.2-212.5,40.2-2949.6,45.9l-2779.2,7.7l-88,111C3154.9,33.2,2946.3,159.5,2680.2,215C2054.3,347.1,1438-164,1439.9-816.7c0-235.4,99.5-507.2,241.2-664.2l68.9-76.6h-306.3h-308.2l-5.7,991.5c-5.7,972.3-5.7,991.5-47.9,1066.1C949.9,745.2,645.6,848.5,394.8,731.8z M4349.3-1949.8v-1292h-392.4h-392.4v1292v1292h392.4h392.4V-1949.8z"/></g></g>
</svg>