<?xml version="1.0" encoding="iso-8859-1"?>
<!-- Generator: Adobe Illustrator 19.0.0, SVG Export Plug-In . SVG Version: 6.00 Build 0)  -->
<svg xmlns="http://www.w3.org/2000/svg" xmlns:xlink="http://www.w3.org/1999/xlink" version="1.1" id="Capa_1" x="0px" y="0px" viewBox="0 0 480.002 480.002" style="enable-background:new 0 0 480.002 480.002;" xml:space="preserve" width="81px" height="81px">
<g>
	<g>
		<path d="M456,288.001h-72v-120h72c4.418,0,8-3.582,8-8v-39.44L479.92,9.137c0.627-4.373-2.409-8.428-6.783-9.055    C472.76,0.028,472.38,0.001,472,0.001H248C243.582,0,240,3.582,239.999,8c0,0.38,0.027,0.76,0.081,1.137L256,120.561v39.44    c0,4.418,3.582,8,8,8h72v120h-8c-13.255,0-24,10.745-24,24s10.745,24,24,24h8v16h-56l7.464-112H296c4.418,0,8-3.582,8-8v-32    c0-4.418-3.582-8-8-8h-56.6c-2.529-17.336-13.011-32.495-28.336-40.984c12.684-28.207,0.1-61.356-28.108-74.04    c-28.207-12.684-61.356-0.1-74.04,28.108c-2.201,4.894-3.687,10.079-4.412,15.397c-43.856-4.744-83.255,26.962-87.999,70.818    c-0.025,0.234-0.05,0.468-0.073,0.702H8c-4.418,0-8,3.582-8,8v32c0,4.418,3.582,8,8,8h8.52L32,472.529    c0.279,4.211,3.78,7.481,8,7.472h432c4.418,0,8-3.582,8-8v-160C480,298.746,469.255,288.001,456,288.001z M257.224,16.001H288v48    h16v-48h16v16h16v-16h48v24h16v-24h16v48h16v-48h30.776l-13.712,96H270.936L257.224,16.001z M272,152.001v-24h176v24H272z     M368,168.001v120h-16v-120H368z M288,208.001v16H168v-16H288z M103.763,136.505c2.199,0.273,4.382,0.66,6.541,1.16    c0.088,0,0.176,0,0.264,0c9.385,2.208,18.153,6.497,25.656,12.552l10.064-12.44c-7.699-6.173-16.47-10.875-25.872-13.872    c2.297-21.914,21.924-37.817,43.838-35.52c21.914,2.297,37.817,21.924,35.52,43.838c-0.678,6.472-2.93,12.68-6.557,18.082    c-2.458,3.671-1.475,8.64,2.197,11.098c0.561,0.375,1.167,0.678,1.803,0.902c13.237,4.673,23.056,15.943,25.872,29.696H160    c-4.418,0-8,3.582-8,8v72c0,4.418-3.582,8-8,8s-8-3.582-8-8v-16c0-13.255-10.745-24-24-24s-24,10.745-24,24v56    c0,4.418-3.582,8-8,8s-8-3.582-8-8v-112c0-4.418-3.582-8-8-8H32.536C36.88,157.007,68.769,132.161,103.763,136.505z M16,224.001    v-16h40v16H16z M224,376.001v88H47.488l-14.936-224H56v72c0,13.255,10.745,24,24,24s24-10.745,24-24v-56c0-4.418,3.582-8,8-8    s8,3.582,8,8v16c0,13.255,10.745,24,24,24s24-10.745,24-24v-32h103.448l-7.448,112h-16C234.745,352.001,224,362.746,224,376.001z     M464,464.001h-24v-40h-16v40h-24v-40h-16v40h-24v-40h-16v40h-24v-40h-16v40h-24v-40h-16v40h-24v-64h224V464.001z M464,384.001    H240v-8c0-4.418,3.582-8,8-8h176c13.255,0,24-10.745,24-24s-10.745-24-24-24h-96c-4.418,0-8-3.582-8-8s3.582-8,8-8h128    c4.418,0,8,3.582,8,8V384.001z M352,352.001v-16h16v16H352z M384,352.001v-16h40c4.418,0,8,3.582,8,8s-3.582,8-8,8H384z" fill="goldenrod"/>
	</g>
</g>
<g>
	<g>
		<polygon points="32,80.001 32,64.001 16,64.001 16,80.001 0,80.001 0,96.001 16,96.001 16,112.001 32,112.001 32,96.001     48,96.001 48,80.001   " fill="goldenrod"/>
	</g>
</g>
<g>
	<g>
		<polygon points="456,224.001 456,208.001 440,208.001 440,224.001 424,224.001 424,240.001 440,240.001 440,256.001 456,256.001     456,240.001 472,240.001 472,224.001   " fill="goldenrod"/>
	</g>
</g>
<g>
	<g>
		<polygon points="152,16.001 152,0.001 136,0.001 136,16.001 120,16.001 120,32.001 136,32.001 136,48.001 152,48.001 152,32.001     168,32.001 168,16.001   " fill="goldenrod"/>
	</g>
</g>
<g>
	<g>
		<rect x="288" y="80.001" width="16" height="16" fill="goldenrod"/>
	</g>
</g>
<g>
</g>
<g>
</g>
<g>
</g>
<g>
</g>
<g>
</g>
<g>
</g>
<g>
</g>
<g>
</g>
<g>
</g>
<g>
</g>
<g>
</g>
<g>
</g>
<g>
</g>
<g>
</g>
<g>
</g>
</svg>
