<?xml version="1.0" encoding="iso-8859-1"?>
<!-- Generator: Adobe Illustrator 18.0.0, SVG Export Plug-In . SVG Version: 6.00 Build 0)  -->
<!DOCTYPE svg PUBLIC "-//W3C//DTD SVG 1.1//EN" "http://www.w3.org/Graphics/SVG/1.1/DTD/svg11.dtd">
<svg version="1.1" id="Capa_1" xmlns="http://www.w3.org/2000/svg" xmlns:xlink="http://www.w3.org/1999/xlink" x="0px" y="0px"
	 viewBox="0 0 297 297" style="enable-background:new 0 0 297 297;" xml:space="preserve">
<g>
	<path d="M174.692,199.327c0-3.806-3.021-6.164-6.712-5.242c0,0-10.403,2.597-19.479,2.597c-9.076,0-19.48-2.597-19.48-2.597
		c-3.69-0.922-6.712,1.436-6.712,5.242v7.238c0,3.805,3.113,6.919,6.919,6.919h38.545c3.806,0,6.919-3.114,6.919-6.919V199.327z"/>
	<path d="M223.616,9.884c0-5.458-4.426-9.884-9.884-9.884H83.27c-5.458,0-9.884,4.426-9.884,9.884v81.539
		c0,25.522,7.591,48.755,21.375,65.415c13.873,16.771,32.959,26.008,53.74,26.008c20.781,0,39.867-9.236,53.74-26.008
		c13.784-16.66,21.375-39.893,21.375-65.415V9.884z M197.065,85.18l-8.256,8.362l1.809,11.696c1.27,8.222-2.115,16.365-8.839,21.256
		c-3.794,2.757-8.276,4.215-12.963,4.215c-3.464,0-6.928-0.833-10.023-2.412l-10.293-5.261l-10.319,5.274
		c-3.088,1.569-6.545,2.398-9.998,2.398c-4.695,0-9.182-1.461-12.958-4.213c-6.725-4.887-10.111-13.032-8.841-21.259l1.809-11.694
		l-8.238-8.344c-5.847-5.898-7.881-14.475-5.314-22.37c2.565-7.917,9.258-13.658,17.46-14.982l11.432-1.853l5.316-10.462
		c3.789-7.435,11.32-12.055,19.652-12.055c8.333,0,15.864,4.619,19.661,12.07l5.308,10.446l11.429,1.851
		c8.206,1.326,14.897,7.067,17.459,14.972C204.927,70.723,202.894,79.298,197.065,85.18z"/>
	<path d="M182.689,61.505l-18.373-2.976l-8.491-16.715c-1.407-2.761-4.233-4.5-7.325-4.5c-3.092,0-5.917,1.739-7.324,4.5
		l-8.492,16.715l-18.371,2.976c-3.043,0.491-5.557,2.649-6.51,5.589c-0.955,2.939-0.191,6.176,1.979,8.365l13.15,13.317
		l-2.873,18.575c-0.473,3.061,0.8,6.133,3.299,7.949c1.431,1.043,3.124,1.571,4.825,1.571c1.272,0,2.551-0.299,3.729-0.897
		l16.589-8.478l16.59,8.478c1.178,0.601,2.454,0.897,3.727,0.897c1.703,0,3.397-0.531,4.828-1.571
		c2.499-1.818,3.772-4.889,3.299-7.951l-2.874-18.573l13.15-13.317c2.169-2.189,2.933-5.426,1.978-8.365
		C188.244,64.154,185.73,61.996,182.689,61.505z"/>
	<path d="M262.654,11.202h-25.201v19.767h15.318v44.146c0,17.802-5.264,29.073-16.569,34.703
		c-1.055,7.772-2.755,15.279-5.113,22.393c26.877-5.669,41.449-25.436,41.449-57.096V21.086
		C272.538,15.627,268.113,11.202,262.654,11.202z"/>
	<path d="M60.8,109.819c-11.307-5.631-16.571-16.902-16.571-34.704V30.969h15.32V11.202H34.346c-5.459,0-9.884,4.425-9.884,9.884
		v54.029c0,31.662,14.572,51.429,41.451,57.098C63.556,125.099,61.855,117.592,60.8,109.819z"/>
	<path d="M83.27,228.31c-5.458,0-9.884,4.425-9.884,9.884v48.923c0,5.458,4.426,9.884,9.884,9.884h130.463
		c5.458,0,9.884-4.426,9.884-9.884v-48.923c0-5.459-4.426-9.884-9.884-9.884H83.27z"/>
</g>
<g>
</g>
<g>
</g>
<g>
</g>
<g>
</g>
<g>
</g>
<g>
</g>
<g>
</g>
<g>
</g>
<g>
</g>
<g>
</g>
<g>
</g>
<g>
</g>
<g>
</g>
<g>
</g>
<g>
</g>
</svg>
