<?xml version="1.0" encoding="iso-8859-1"?>
<!-- Generator: Adobe Illustrator 16.0.0, SVG Export Plug-In . SVG Version: 6.00 Build 0)  -->
<!DOCTYPE svg PUBLIC "-//W3C//DTD SVG 1.1//EN" "http://www.w3.org/Graphics/SVG/1.1/DTD/svg11.dtd">
<svg version="1.1" id="Capa_1" xmlns="http://www.w3.org/2000/svg" xmlns:xlink="http://www.w3.org/1999/xlink" x="0px" y="0px"
	 width="239.369px" height="239.368px" viewBox="0 0 239.369 239.368" style="enable-background:new 0 0 239.369 239.368;"
	 xml:space="preserve">
<g>
	<path d="M238.301,213.351l-17.283-20.517c-2.641-3.394-1.139-5.57-0.891-6.159c1.94-4.597,4.715-9.173,7.652-14.019
		c3.997-6.597,8.131-13.418,10.428-20.851c0.438-1.423,0.176-2.971-0.709-4.167c-0.883-1.198-2.283-1.905-3.773-1.905h-12.192
		c2.168-7.532,3.192-16.765,1.77-27.854c-1.158-9.03-4.963-17.578-11.309-25.405c-1.441-1.779-1.627-2.996-0.765-5.008
		c3.728-8.677-0.143-20.359-8.453-25.512c-0.069-0.043-0.143-0.093-0.215-0.141c-0.375-0.254-0.887-0.602-1.551-0.602
		c-0.324,0-0.635,0.083-0.932,0.246c-1.351,0.748-1.047,2.094-0.918,2.669c0.024,0.113,0.053,0.225,0.063,0.329
		c0.555,4.815-0.557,8.395-3.492,11.267c-0.662,0.648-1.075,0.89-1.521,0.89c-0.33,0-0.734-0.124-1.242-0.381
		c-8.629-4.37-17.414-6.666-26.135-6.892c0-0.011-0.75-0.011-0.75,0c-8.721,0.226-17.506,2.521-26.135,6.892
		c-0.509,0.257-0.912,0.381-1.244,0.381c-0.445,0-0.857-0.241-1.521-0.89c-2.938-2.872-4.049-6.451-3.492-11.267
		c0.013-0.104,0.039-0.216,0.064-0.329c0.129-0.575,0.432-1.921-0.918-2.669c-0.297-0.163-0.609-0.246-0.934-0.246
		c-0.662,0-1.175,0.348-1.552,0.602c-0.069,0.048-0.145,0.098-0.215,0.141c-8.309,5.152-12.18,16.835-8.451,25.512
		c0.863,2.012,0.679,3.229-0.764,5.008c-6.346,7.827-10.15,16.375-11.309,25.405c-1.427,11.089-0.398,20.321,1.77,27.854H99.19
		c-1.487,0-2.889,0.707-3.771,1.905c-0.885,1.196-1.146,2.744-0.709,4.167c2.295,7.433,6.43,14.254,10.428,20.851
		c2.938,4.846,5.711,9.422,7.652,14.019c0.248,0.589,1.748,2.767-0.892,6.159l-2.323,2.759l-14.295-36.214l-22.177-56.178
		C90.875,91.575,97.201,65.27,87.766,41.119l-0.678-1.731l2.902-1.134c0.647-0.254,1.123-0.822,1.256-1.507
		c0.135-0.683-0.09-1.39-0.599-1.869L73.829,18.91c-0.572-0.544-1.408-0.708-2.146-0.42c-0.733,0.288-1.237,0.975-1.291,1.763
		l-1.547,23.141c-0.045,0.697,0.269,1.368,0.832,1.78c0.562,0.413,1.297,0.508,1.945,0.253l2.899-1.132l0.675,1.732
		c6.329,16.2,2.954,33.475-7.938,42.229L48.129,39.274l2.242-0.875c0.649-0.254,1.123-0.821,1.258-1.506
		c0.135-0.684-0.09-1.39-0.598-1.869l-16.82-15.97c-0.572-0.544-1.408-0.709-2.146-0.419c-0.737,0.287-1.239,0.973-1.293,1.762
		L29.23,43.541c-0.047,0.695,0.265,1.366,0.828,1.778c0.562,0.413,1.297,0.508,1.945,0.254l2.244-0.875l19.127,48.977
		c-1.603,0.103-3.234,0.055-4.871-0.146c0,0,0,0-0.002,0c-12.514-1.533-24.125-11.549-29.582-25.517l-0.678-1.733l2.901-1.133
		c0.648-0.253,1.121-0.823,1.258-1.506c0.134-0.683-0.092-1.39-0.596-1.869L4.985,45.802c-0.573-0.543-1.407-0.709-2.145-0.42
		c-0.736,0.286-1.24,0.973-1.291,1.762L0.004,70.286c-0.047,0.696,0.266,1.366,0.828,1.779c0.562,0.412,1.295,0.508,1.944,0.256
		l2.9-1.135l0.678,1.734c7.668,19.632,24.158,33.73,42.011,35.917c3.676,0.45,7.317,0.378,10.856-0.212l39.443,99.919l-4.049,4.808
		c-1.152,1.399-1.396,3.341-0.619,4.979c0.775,1.64,2.426,2.688,4.24,2.688h136.44c1.814,0,3.465-1.047,4.24-2.688
		C239.694,216.691,239.455,214.75,238.301,213.351z"/>
</g>
<g>
</g>
<g>
</g>
<g>
</g>
<g>
</g>
<g>
</g>
<g>
</g>
<g>
</g>
<g>
</g>
<g>
</g>
<g>
</g>
<g>
</g>
<g>
</g>
<g>
</g>
<g>
</g>
<g>
</g>
</svg>
