<?xml version="1.0" encoding="utf-8"?>
<!-- Svg Vector Icons : http://www.onlinewebfonts.com/icon -->
<!DOCTYPE svg PUBLIC "-//W3C//DTD SVG 1.1//EN" "http://www.w3.org/Graphics/SVG/1.1/DTD/svg11.dtd">
<svg version="1.1" xmlns="http://www.w3.org/2000/svg" xmlns:xlink="http://www.w3.org/1999/xlink" x="0px" y="0px" viewBox="0 0 1000 1000" enable-background="new 0 0 1000 1000" xml:space="preserve">
<metadata> Svg Vector Icons : http://www.onlinewebfonts.com/icon </metadata>
<g><path d="M879.6,463.2c0,0-143,30.4-182.5,41.1c-39.2,10.6-87.8-66.4-100.8-69.2c-8.3,24.1-35.2,95-51.4,143.1c24.9-0.7,154.1,38.4,158.8,61.3c5.4,23.1,65.7,273.1,65.7,273.1s25.6,53.7-47,73.4c-72.7,19.7-76-40.1-76-40.1s-50.7-192-55.2-203.6c-4.2-11.6-98.8-31.1-120.5-25.2c-21.9,5.9-68.6,169.6-114.7,180.8c-59.3,14.4-233-91.1-233-91.1s-68.6-17-54.6-81.4c14.3-63.9,80.8-46.5,80.8-46.5s123,67.6,137.2,59.7c14.4-8,22.5-54.7,43.5-99.9c0.8-17,49.2-152.6,49.2-152.6s26.7-90.2,16.1-95.9c-14.7-7.8-30,8.8-38.1,22.6c-8,13.7-39.9,70.1-93.3,143.6c-47.4,65.4-132,4.7-96.8-56.5c29.2-50.8,107-196.3,163-223.6c56.4-27.6,153.5-42.9,236.1-23.5c83,19,141.3,113,157.6,125.5c16,11.9,127.8-24.2,127.8-24.2s63.7-22.2,79.5,36C946.8,448.7,879.6,463.2,879.6,463.2L879.6,463.2L879.6,463.2z M617.9,223.4c-58.6,15.9-118.3-18.1-134-76.1c-15.6-57.7,18.6-117.6,77.2-133.4C619.6-2,679.5,32.4,695.2,90.1C710.9,148.2,676.4,207.6,617.9,223.4L617.9,223.4L617.9,223.4z"/></g>
</svg>