<?xml version="1.0" encoding="utf-8"?>
<!-- Svg Vector Icons : http://www.onlinewebfonts.com/icon -->
<!DOCTYPE svg PUBLIC "-//W3C//DTD SVG 1.1//EN" "http://www.w3.org/Graphics/SVG/1.1/DTD/svg11.dtd">
<svg width="81px" height="81px" version="1.1" xmlns="http://www.w3.org/2000/svg" xmlns:xlink="http://www.w3.org/1999/xlink" x="0px" y="0px" viewBox="0 0 1000 1000" enable-background="new 0 0 1000 1000" xml:space="preserve">
<metadata> Svg Vector Icons : http://www.onlinewebfonts.com/icon </metadata>
<g><style>.achievement-svg{fill: goldenrod;} </style><path class="achievement-svg" d="M594.2,285.6"/><path class="achievement-svg" d="M738.6,260.4"/><path class="achievement-svg" d="M689,236.1c63.7,0,115.3-51.6,115.3-115.4C804.3,57,752.7,5.4,689,5.4c-63.7,0-115.4,51.6-115.4,115.3C573.6,184.4,625.2,236.1,689,236.1L689,236.1z"/><path class="achievement-svg" d="M689,236.1"/><path class="achievement-svg" d="M878.7,202.9c-66.2,92.8-154.9,103.5-250.4,46.9c-6.5-3.9-35.3-19.7-41.7-23.5c-153.5-91.1-306.9-55.4-409.7,88.6c-43.7,61.3,57.4,119.3,100.6,58.8c53.1-74.4,120.7-95.9,194.6-72.4c-37.8,65.7-70.9,131-117.6,223.7c-46.7,92.7-149.8,166.8-248.8,108.9C34.2,592-30.3,694.7,41,736.4c135.2,79,293.8,30.5,374.7-72.2c2.8,1.5,5.8,2.9,9,4c66.1,23,152.8,84.4,179.2,106.1c26.4,21.7,71.8,132.5,98.7,188.1c32.7,67.5,138.2,18.3,105.4-49.5c-30.5-63.1-81.8-189.1-121.8-221c-32.1-25.6-94.3-73.1-147.2-100.1c35.7-69.2,72.9-137.7,112.1-204.9c124.8,38.2,243.5-6.8,328-125.2C1023,200.4,921.9,142.3,878.7,202.9L878.7,202.9z"/><path class="achievement-svg" d="M878.7,202.9"/></g>
</svg>