<?xml version="1.0" encoding="utf-8"?>
<!-- Svg Vector Icons : http://www.onlinewebfonts.com/icon -->
<!DOCTYPE svg PUBLIC "-//W3C//DTD SVG 1.1//EN" "http://www.w3.org/Graphics/SVG/1.1/DTD/svg11.dtd">
<svg version="1.1" xmlns="http://www.w3.org/2000/svg" xmlns:xlink="http://www.w3.org/1999/xlink" x="0px" y="0px" viewBox="0 0 1000 1000" enable-background="new 0 0 1000 1000" xml:space="preserve">
<metadata> Svg Vector Icons : http://www.onlinewebfonts.com/icon </metadata><style>.achievement-svg{fill: goldenrod;} </style>
<g><g transform="translate(0.000000,512.000000) scale(0.100000,-0.100000)"><path class="achievement-svg" d="M5136.7,5009.8c-375.5-59.4-866-304.6-1281.7-639.9L3694,4239.6l13.4,103.5c17.2,137.9,55.6,183.9,229.9,275.9l149.4,78.5l-63.2,38.3c-183.9,109.2-291.2,160.9-438.7,208.8c-145.6,47.9-191.6,53.6-431.1,53.6c-245.2,1.9-279.7-1.9-408.1-49.8c-446.4-162.8-741.4-500-867.9-992.4c-55.6-210.7-76.6-235.6-145.6-168.6c-141.8,136-360.2,145.6-530.7,28.7c-67.1-47.9-151.3-224.2-256.7-542.2c-465.5-1398.5-318-2710.9,421.5-3726.3l92-128.4v-1396.6c0-1195.4,3.8-1412,28.7-1509.6c80.5-306.5,354.4-565.2,662.9-622.6c55.6-11.5,212.7-19.2,352.5-19.2h254.8l7.7-180.1c5.7-159,13.4-191.6,65.1-272c40.2-67.1,84.3-107.3,159-145.6l101.5-53.6h1959.9h1959.9l101.5,53.6c74.7,38.3,118.8,78.6,160.9,147.5c51.7,82.4,57.5,113,63.2,272l7.7,178.2h254.8c139.8,0,300.8,9.6,356.3,19.2c251,47.9,488.5,233.7,607.3,477l70.9,145.6l9.6,1456l9.6,1457.9l69,84.3c262.5,319.9,492.4,883.2,576.7,1408.1c38.3,249.1,28.7,854.5-19.2,1122.7c-109.2,597.7-337.2,1059.4-703.1,1421.5c-189.7,187.8-229.9,252.9-295,461.7c-111.1,362.1-319.9,607.3-662.9,777.8c-241.4,118.8-415.7,159-699.3,159c-266.3-1.9-388.9-26.8-718.4-149.4c-176.3-67.1-191.6-69-210.7-38.3c-97.7,166.7-183.9,241.4-339.1,297C5523.7,5015.6,5284.2,5032.8,5136.7,5009.8z M5567.7,4672.6c40.2-17.3,80.5-63.2,113-122.6c65.1-116.9,122.6-164.8,256.7-203.1c116.9-34.5,116.9-34.5,463.6,86.2c293.1,103.4,457.9,126.4,670.5,99.6c285.5-36.4,480.9-120.7,647.5-275.9c130.3-124.5,178.2-206.9,251-436.8c80.4-247.1,162.8-379.3,367.8-580.5c185.8-183.9,281.6-310.4,385.1-519.2C8976,2216.6,9066,1509.6,8956.8,871.7c-38.3-224.2-153.3-580.5-243.3-756.7l-69-134.1l-1.9,1115v1115l-185.8-107.3c-544.1-310.4-873.6-364-1208.9-201.2c-137.9,65.1-321.9,247.1-396.6,390.8l-57.5,109.2l-134.1,24.9c-86.2,15.3-295,24.9-593.9,24.9c-406.2-1.9-482.8-5.7-660.9-44.1c-480.9-105.4-854.5-283.5-1138-542.2l-103.4-93.9l-141.8,19.2c-682,95.8-1237.6,264.4-1530.7,465.5l-70.9,47.9l-187.8-185.8c-218.4-214.6-369.7-318-605.4-415.7l-168.6-70.9l-3.8-816.1L1448.7,0l-107.3,220.3c-168.6,341-264.4,661-314.2,1040.3c-84.3,647.6,21.1,1398.5,295,2101.6c109.2,277.8,101.5,270.1,178.2,199.3c92-88.1,178.2-126.5,293.1-126.5c201.2-1.9,314.2,115,387,398.5c63.2,254.8,157.1,431.1,300.8,572.8c122.6,120.7,302.7,222.2,452.1,256.7c111.1,26.8,318,26.8,436.8,1.9l93.9-21.1l-38.3-109.2c-28.7-82.4-38.3-160.9-38.3-321.9c-1.9-243.3,24.9-316.1,143.7-379.3c103.5-57.5,197.3-21.1,367.8,139.8c358.3,339.1,779.7,586.2,1184,691.6C5257.3,4711,5481.5,4714.8,5567.7,4672.6z M6535.2,2105.4c28.8-5.7,67.1-42.1,95.8-88.1c72.8-116.9,310.4-333.3,434.9-396.6c329.5-164.8,720.4-174.4,1109.2-23l141.8,55.5V-860.2c0-2756.9,5.7-2628.5-113-2772.2c-32.6-38.3-99.6-88.1-149.4-113l-90-42.1H5056.2H2146.1l-105.4,51.7c-126.4,63.2-206.9,162.9-235.6,298.8c-15.3,65.2-21.1,852.6-21.1,2467.6v2373.7l101.5,49.8c149.4,72.8,314.2,182,461.7,306.5l128.4,109.2l185.8-74.7c392.7-160.9,858.3-277.8,1367.9-341l264.4-32.6l128.4,134.1c277.8,283.5,737.6,492.4,1235.7,559.4C5797.6,2134.2,6445.2,2126.5,6535.2,2105.4z M7010.3-4285.7l-5.7-159H5050.4H3096.3l-5.7,159l-5.8,157.1h1965.6h1965.6L7010.3-4285.7z"/><path class="achievement-svg" d="M3374.1,1245.2C2989,1159,2640.4,852.5,2512,482.7c-59.4-166.7-72.8-442.5-30.7-607.3c105.4-413.8,411.9-729.9,825.7-854.5c176.3-53.6,442.6-46,616.9,15.3c187.7,67.1,291.2,130.3,442.5,274c469.4,442.6,486.6,1120.7,42.1,1588.2c-145.6,153.3-316.1,262.5-494.3,318C3747.7,1268.2,3527.4,1279.7,3374.1,1245.2z M3736.2,927.2c67.1-9.6,168.6-40.2,222.2-67.1c101.5-46,277.8-187.7,277.8-220.3c0-9.6-272-17.3-655.2-17.3h-655.2l82.4,84.3C3113.6,814.2,3245.7,887,3399,919.5C3548.4,952.1,3584.8,952.1,3736.2,927.2z M3284.1,235.6c-7.7-24.9-15.3-74.7-15.3-111.1c0-36.4,7.7-86.2,15.3-109.2l15.3-44.1h-258.6h-260.6v153.3v153.3h260.6h258.6L3284.1,235.6z M4397.1,247.1c5.8-17.2,11.5-70.9,11.5-122.6c0-157.1,7.7-153.3-266.3-153.3H3901v153.3v153.3h241.4C4345.4,277.7,4387.6,272,4397.1,247.1z M4236.2-388.9c0-19.2-107.3-118.8-185.8-174.3c-78.5-53.7-235.6-107.3-364-124.5c-231.8-30.7-517.3,65.1-676.3,226.1l-84.3,88.1H3581C3941.2-373.6,4236.2-381.3,4236.2-388.9z"/><path class="achievement-svg" d="M6345.5,1252.9c-396.6-67.1-766.3-392.7-906.2-800.8c-61.3-180.1-61.3-475.1,0-655.2c59.4-176.3,157.1-331.4,293.1-469.4c352.5-356.3,854.5-444.5,1291.3-224.1c388.9,197.3,641.8,599.6,641.8,1021.1c0,532.6-394.6,1007.7-931.1,1120.8C6588.8,1275.9,6498.8,1277.8,6345.5,1252.9z M6713.4,919.5c160.9-34.5,291.2-103.4,398.5-212.6l82.4-84.3H6539c-383.2,0-655.2,7.7-655.2,17.3c0,32.6,176.3,174.3,279.7,222.2C6336,944.5,6512.2,961.7,6713.4,919.5z M6219.1,124.5V-30.7l-249,5.7L5721-19.2l-5.7,122.6c-3.8,67.1-1.9,134.1,3.8,147.5c7.7,21.1,67.1,26.8,254.8,26.8h245.2V124.5z M7339.8,124.5V-28.8h-260.5h-258.6l15.3,44.1c19.2,53.7,19.2,164.8,0,220.3l-15.3,42.2h258.6h260.5V124.5z M7109.9-461.8c-300.8-304.6-837.2-306.5-1162.9,0c-34.5,30.6-63.2,65.1-63.2,72.8c0,7.7,295,15.3,655.2,15.3h655.2L7109.9-461.8z"/><path class="achievement-svg" d="M6791.9-1523.1c-53.7-21.1-103.5-92-103.5-147.5c0-24.9-5.7-44.1-11.5-44.1c-5.8,0-80.5,24.9-166.7,55.6c-298.8,105.4-432.9,126.4-798.9,126.4c-360.2,0-513.4-23-798.9-116.9c-465.5-157.1-906.2-471.3-1184-846.8c-63.2-84.3-120.7-149.4-128.4-145.6c-7.7,5.8-15.3,34.5-15.3,67.1c0,107.3-134.1,182-228,130.3c-149.4-84.3-109.2-344.8,88.1-555.6c113-120.7,247.1-191.6,390.8-203.1c99.6-9.6,115-5.7,159,38.3c69,69,69,170.5,0,233.7c-28.7,26.8-67.1,47.9-86.2,47.9c-51.7,0-46,17.2,42.2,143.7c306.5,436.8,712.7,718.4,1235.7,854.5c239.5,63.2,705,63.2,946.4,3.8c90.1-23,183.9-49.8,210.7-59.4l47.9-19.2l-47.9-19.2c-113-44-139.8-174.3-55.5-264.4c42.1-46,55.5-49.8,160.9-40.2c283.5,21.1,538.3,275.9,559.4,557.5c9.6,105.4,5.7,120.7-34.5,159C6918.4-1517.4,6847.5-1500.1,6791.9-1523.1z"/></g></g>
</svg>