<?xml version="1.0" encoding="iso-8859-1"?>
<!-- Generator: Adobe Illustrator 19.0.0, SVG Export Plug-In . SVG Version: 6.00 Build 0)  -->
<svg version="1.1" id="Layer_1" xmlns="http://www.w3.org/2000/svg" xmlns:xlink="http://www.w3.org/1999/xlink" x="0px" y="0px"
	 viewBox="0 0 512 512" style="enable-background:new 0 0 512 512;" xml:space="preserve">
<g>
	<g>
		<path d="M186.564,310.605v176.996h0.001c0,13.475,10.924,24.399,24.399,24.399c13.475,0,24.399-10.924,24.399-24.399v-185.06
			L186.564,310.605z"/>
	</g>
</g>
<g>
	<g>
		<path d="M294.256,222.79l-28.444-8.979l8.193,49.67c2.706,16.407-7.29,33.889-28.105,37.322v186.798
			c0,13.475,10.924,24.399,24.399,24.399c13.475,0,24.399-10.924,24.399-24.399C294.697,469.773,294.256,240.632,294.256,222.79z"/>
	</g>
</g>
<g>
	<g>
		<circle cx="240.629" cy="42.141" r="42.141"/>
	</g>
</g>
<g>
	<g>
		<path d="M252.036,267.104l-12.106-73.391c-0.897-5.442-6.037-9.126-11.478-8.228l-32.716,5.397l0.047,95.623l48.026-7.922
			C249.251,277.685,252.935,272.545,252.036,267.104z"/>
	</g>
</g>
<g>
	<g>
		<path d="M185.939,97.713c-26.398,0-47.984,21.477-48.118,47.876c-0.115,22.937-0.666,132.66-0.75,149.379
			c-0.057,11.23,9.001,20.378,20.23,20.435c0.034,0,0.07,0,0.105,0c11.181,0,20.275-9.037,20.33-20.231
			c0.083-16.608,0.637-126.842,0.75-149.379c0.001,0.001,0.001,0.001,0.001,0c0.012-2.224,1.821-4.019,4.045-4.013
			c2.224,0.007,4.023,1.811,4.023,4.035v24.015l38.275-6.313c4.648-0.767,9.575-0.535,14.409,0.884
			c3.511-10.973,11.435-19.311,21.191-23.681c1.94-7.266,7.145-26.755,11.485-43.007C237.816,97.713,235.257,97.713,185.939,97.713z
			"/>
	</g>
</g>
<g>
	<g>
		<path d="M372.931,192.275c-3.593-7.601-26.327-55.692-30.053-63.575c-7.13-15.083-20.878-25.882-36.771-29.581l-10.514,39.369
			c4.588,0.57,8.577,3.482,10.52,7.592l10.154,21.478c-27.617-8.719-24.638-7.778-33.802-10.67
			c-10.708-3.377-22.13,2.561-25.511,13.269c-3.366,10.663,2.58,22.137,13.269,25.511l78.206,24.686
			C365.313,225.683,380.501,208.287,372.931,192.275z"/>
	</g>
</g>
<g>
</g>
<g>
</g>
<g>
</g>
<g>
</g>
<g>
</g>
<g>
</g>
<g>
</g>
<g>
</g>
<g>
</g>
<g>
</g>
<g>
</g>
<g>
</g>
<g>
</g>
<g>
</g>
<g>
</g>
</svg>
