<?xml version="1.0" encoding="iso-8859-1"?>
<!-- Generator: Adobe Illustrator 19.0.0, SVG Export Plug-In . SVG Version: 6.00 Build 0)  -->
<svg version="1.1" id="Layer_1" xmlns="http://www.w3.org/2000/svg" xmlns:xlink="http://www.w3.org/1999/xlink" x="0px" y="0px"
	 viewBox="0 0 512 512" style="enable-background:new 0 0 512 512;" xml:space="preserve">
<g>
	<g>
		<path d="M412.707,0c-39.07,0-70.857,31.786-70.857,70.855s31.786,70.855,70.857,70.855c39.069,0,70.855-31.786,70.855-70.855
			S451.775,0,412.707,0z M412.707,124.239c-29.436,0-53.385-23.948-53.385-53.384s23.949-53.384,53.385-53.384
			s53.384,23.948,53.384,53.384S442.143,124.239,412.707,124.239z"/>
	</g>
</g>
<g>
	<g>
		<path d="M412.707,27.178c-4.825,0-8.736,3.912-8.736,8.736v26.207H389.8c-4.825,0-8.736,3.912-8.736,8.736
			c0,4.824,3.91,8.736,8.736,8.736h22.907c4.825,0,8.736-3.912,8.736-8.736V35.914C421.442,31.088,417.532,27.178,412.707,27.178z"
			/>
	</g>
</g>
<g>
	<g>
		<circle cx="189.162" cy="112.56" r="46.586"/>
	</g>
</g>
<g>
	<g>
		<path d="M356.015,280.871h-109.37l35.224-11.329c11.096-3.569,17.2-15.459,13.631-26.555s-15.459-17.199-26.555-13.63
			l-4.748,1.527l-22.259-36.822c-2.496-4.128-7.867-5.452-11.995-2.957c-4.129,2.496-5.453,7.866-2.957,11.995l20.118,33.281
			l-34.653,11.146l0.572-36.322c0.309-19.633-15.461-35.76-35.087-35.9l-32.512-0.233c-19.654-0.141-35.651,15.797-35.598,35.44
			l0.328,119.876c0.045,16.351,11.325,30.648,27.444,34.345H93.179L63.056,211.496c-1.862-9.468-11.043-15.634-20.514-13.773
			c-9.466,1.861-15.634,11.045-13.773,20.513l32.893,167.338c1.573,8.003,8.467,13.81,16.568,14.076l-33.586,87.086
			c-2.315,6.001,0.675,12.743,6.676,15.058c6.005,2.316,12.744-0.677,15.058-6.676l36.809-95.443h73.534l21.046,54.571l-9.141,23.1
			c-5.147,13.007,1.225,27.723,14.232,32.87c13.007,5.147,27.723-1.226,32.87-14.232l57.494-145.291
			c6.569-16.6-5.681-34.647-23.551-34.647c-0.023,0-0.049,0-0.074,0c-8.226,0.025-58.845,0.172-84.856,0.248
			c-14.674,0.042-27.118-10.829-28.999-25.382c-0.002-0.021-0.006-0.042-0.008-0.064l-6.423-51.738l20.532,46.589
			c4.362,9.899,15.493,14.889,25.775,11.582l28.006-9.007c-0.517,1.317-0.809,2.745-0.809,4.244c0,6.436,5.226,11.648,11.648,11.648
			h121.551c6.432,0,11.648-5.215,11.648-11.648C367.663,286.086,362.448,280.871,356.015,280.871z M209.492,366.879l22.876-0.067
			l-21.955,55.482l-8.735-22.647c9.381-0.306,16.897-7.987,16.897-17.442C218.576,375.595,214.904,369.846,209.492,366.879z
			 M200.803,251.273l-16.918-38.389l25.578,35.605L200.803,251.273z"/>
	</g>
</g>
<g>
</g>
<g>
</g>
<g>
</g>
<g>
</g>
<g>
</g>
<g>
</g>
<g>
</g>
<g>
</g>
<g>
</g>
<g>
</g>
<g>
</g>
<g>
</g>
<g>
</g>
<g>
</g>
<g>
</g>
</svg>
