<?xml version="1.0" encoding="iso-8859-1"?>
<!-- Generator: Adobe Illustrator 18.1.1, SVG Export Plug-In . SVG Version: 6.00 Build 0)  -->
<svg xmlns="http://www.w3.org/2000/svg" xmlns:xlink="http://www.w3.org/1999/xlink" version="1.1" id="Capa_1" x="0px" y="0px" viewBox="0 0 50.043 50.043" style="enable-background:new 0 0 50.043 50.043;" xml:space="preserve" width="512px" height="512px">
<g>
	<g>
		<circle cx="23.367" cy="8.983" r="3.755" fill="#FFDA44"/>
		<path d="M22.652,17.764l-0.01,0.038l0.008,0.001c0.002-0.013,0.003-0.026,0.005-0.039H22.652z" fill="#FFDA44"/>
		<path d="M25.93,28.756c0.064-0.475,0.137-0.973,0.209-1.483c0.602,1.06,2.326,1.492,3.117,0.112    c0.99-1.73,3.846-6.066,3.846-6.066s-3.319-4.986-4.641-6.323c-0.25-0.252-0.521-0.396-0.793-0.468l0.008-0.088    c-1.748-0.621-2.488-0.417-2.488-0.417l-2.538,3.78l-0.014,0.019l0.005-0.021l-0.397-0.095l0.407,0.057l0.922-3.518l0.073,0.01    l0.084-0.602l-1.499-0.209l-0.082,0.602l0.077,0.011l0.001,3.709c0,0-1.348-4.504-1.532-4.461c0,0-0.474-0.725-2.589-0.2    c-1.681,0.123-3.363,0.246-5.044,0.369c-0.857-1.271-1.59-2.624-2.106-4.066c-0.38-1.061-1.383-1.318-2.215-1.054L3.722,0.237    C3.578,0.003,3.27-0.07,3.038,0.075C2.803,0.227,2.729,0.527,2.875,0.761l5.02,8.122C7.52,9.292,7.346,9.877,7.592,10.565    c0.633,1.769,3.688,6.921,3.688,6.921s3.141-0.422,5.464-0.676c0.115,0.598,0.251,1.025,0.251,1.025L15.387,29.12    c-1.266,1.886-2.532,3.771-3.799,5.652c-0.616,0.915-0.372,2.272,0.39,3.02c2.632,2.584,5.265,5.168,7.898,7.75    c0.096,0.097,0.195,0.177,0.295,0.25c-0.025,0.617-0.058,1.236-0.103,1.854c-0.236,3.207,4.749,3.187,4.984,0    c0.37-5.047-0.012-10.104,0.191-15.155l0.156,0.021c0.006-0.04,0.123-0.866,0.295-2.095h1.98V48.98h18.692V30.418h0.877v-1.662    H25.93z M27.25,19.4l0.03-0.344c0.521,0.678,1.002,1.389,1.434,2.128c-0.759,1.322-1.518,2.644-2.273,3.967    C26.773,22.782,27.096,20.49,27.25,19.4z M20.213,38.892c-1.084-1.063-2.169-2.129-3.253-3.192    c0.891-1.326,1.782-2.65,2.673-3.979l0.655,0.09C20.166,34.17,20.187,36.532,20.213,38.892z M21.91,22.917    c-0.427-0.061-0.726-0.455-0.666-0.883c0.059-0.428,0.454-0.726,0.882-0.666c0.428,0.059,0.726,0.454,0.666,0.882    C22.733,22.678,22.338,22.976,21.91,22.917z M22.235,20.594c-0.428-0.06-0.726-0.455-0.667-0.883    c0.06-0.428,0.455-0.726,0.882-0.666c0.429,0.06,0.727,0.455,0.667,0.883C23.058,20.355,22.662,20.654,22.235,20.594z" fill="#FFDA44"/>
	</g>
</g>
<g>
</g>
<g>
</g>
<g>
</g>
<g>
</g>
<g>
</g>
<g>
</g>
<g>
</g>
<g>
</g>
<g>
</g>
<g>
</g>
<g>
</g>
<g>
</g>
<g>
</g>
<g>
</g>
<g>
</g>
</svg>
