<?xml version="1.0" encoding="utf-8"?>
<!-- Svg Vector Icons : http://www.onlinewebfonts.com/icon -->
<!DOCTYPE svg PUBLIC "-//W3C//DTD SVG 1.1//EN" "http://www.w3.org/Graphics/SVG/1.1/DTD/svg11.dtd">
<svg version="1.1" xmlns="http://www.w3.org/2000/svg" xmlns:xlink="http://www.w3.org/1999/xlink" x="0px" y="0px" viewBox="0 0 1000 1000" enable-background="new 0 0 1000 1000" xml:space="preserve">
<metadata> Svg Vector Icons : http://www.onlinewebfonts.com/icon </metadata>
<g><g><path d="M848.2,124.7h-54.9c-36.4,0-67.1,23.3-78.7,55.7c-50.7-24.9-90.8-63.1-99.3-71.5C557.2,19.8,371.1,10,293.2,10h-2.1l-1.6,0l-83,3.3c-46.7,0-82.6,5.4-100.1,61.8c-78.2,212.7-16.9,460.6,4.2,532.6c0.3,1.9,0.9,3.8,1.6,5.7c-0.1,0-0.2,0-0.3-0.1c0.5,0.9,1.2,1.8,1.8,2.6c1.2,2.2,2.5,4.3,4.1,6.2c19.8,27.7,52.1,45.9,88.6,45.9h90.3c3.3,8.2,6.6,28-0.3,65.4l-0.4,3.8c-0.5,16.4-3.2,161.9,57,224c18.2,18.8,41,28.7,66.2,28.7c71.3,0,80-31,85.2-78.4c4-36.8,10.1-92.3,62.8-178.2c7.7-12.6,75.9-89.9,168-113.9c15.1,14.5,35.5,23.5,58.1,23.5h54.9c46.4,0,84-37.6,84-83.9V208.7C932.2,162.3,894.6,124.7,848.2,124.7z M523.6,708.2L523.6,708.2c-57.9,94.3-65.1,159.2-69.3,197.9c-3.7,33.5-3.7,33.5-35.2,33.5c-11.6,0-21.2-4.2-30-13.3c-37.9-39.1-43.8-145.4-42.8-185.6c9.1-50.7,4.7-87.3-13.1-108.7c-12.9-15.4-33.7-21-49.6-14.2h-77.2c-7.1,0-13.8-1.5-20.1-3.8c-7.3,2.1-17.2-10.2-20.7-22.2c-20.1-68.7-79.7-308.2-2-506.4c2-5,2.3-10.2,1.5-15.1c8.6-6.5,21.6-6.6,42.4-6.6l83.5-3.3c0.7,0,1.4,0,2.2,0C406,60.4,539,80.8,574,137.8l3.3,4.3c3.2,3.3,58.6,60.2,132,91.2V559c0,5.1,0.6,9.9,1.5,14.8C606.5,605.5,534.7,690.5,523.6,708.2z"/></g><g></g><g></g><g></g><g></g><g></g><g></g><g></g><g></g><g></g><g></g><g></g><g></g><g></g><g></g><g></g></g>
</svg>