<?xml version="1.0" encoding="UTF-8" standalone="no"?>
<!-- Created with Inkscape (http://www.inkscape.org/) -->
<svg xmlns:dc="http://purl.org/dc/elements/1.1/" xmlns:cc="http://creativecommons.org/ns#" xmlns:rdf="http://www.w3.org/1999/02/22-rdf-syntax-ns#" xmlns:svg="http://www.w3.org/2000/svg" xmlns="http://www.w3.org/2000/svg" xmlns:sodipodi="http://sodipodi.sourceforge.net/DTD/sodipodi-0.dtd" xmlns:inkscape="http://www.inkscape.org/namespaces/inkscape" width="170.87247" height="425.62735" id="svg2" version="1.1" inkscape:version="0.47 r22583" sodipodi:docname="Nouveau document 1">
  <defs id="defs4">
    <inkscape:perspective sodipodi:type="inkscape:persp3d" inkscape:vp_x="0 : 526.18109 : 1" inkscape:vp_y="0 : 1000 : 0" inkscape:vp_z="744.09448 : 526.18109 : 1" inkscape:persp3d-origin="372.04724 : 350.78739 : 1" id="perspective10"/>
    <inkscape:perspective id="perspective2824" inkscape:persp3d-origin="0.5 : 0.33333333 : 1" inkscape:vp_z="1 : 0.5 : 1" inkscape:vp_y="0 : 1000 : 0" inkscape:vp_x="0 : 0.5 : 1" sodipodi:type="inkscape:persp3d"/>
  </defs>
  <sodipodi:namedview id="base" pagecolor="#ffffff" bordercolor="#666666" borderopacity="1.0" inkscape:pageopacity="0.0" inkscape:pageshadow="2" inkscape:zoom="0.98994949" inkscape:cx="302.93218" inkscape:cy="213.19179" inkscape:document-units="px" inkscape:current-layer="layer1" showgrid="false" showborder="false" inkscape:window-width="950" inkscape:window-height="760" inkscape:window-x="1270" inkscape:window-y="106" inkscape:window-maximized="0"/>
  <metadata id="metadata7">
    <rdf:RDF>
      <cc:Work rdf:about="">
        <dc:format>image/svg+xml</dc:format>
        <dc:type rdf:resource="http://purl.org/dc/dcmitype/StillImage"/>
        <dc:title/>
      </cc:Work>
    </rdf:RDF>
  </metadata>
  <g inkscape:label="Calque 1" inkscape:groupmode="layer" id="layer1" transform="translate(-253.98831,-223.30636)">
    <path style="fill:#000000" d="m 299.67581,647.24705 c -5.4033,-1.03245 -11.7661,-2.79002 -14.1396,-3.9057 -2.3735,-1.11569 -5.5417,-2.33628 -7.0404,-2.71242 -1.4986,-0.37614 -4.9233,-2.90562 -7.6103,-5.62107 -4.1017,-4.14508 -4.8855,-5.53901 -4.8855,-8.68852 0,-3.91209 4.3285,-17.56842 6.3404,-20.0037 0.6378,-0.77204 0.9995,-1.44704 0.8037,-1.5 -0.9111,-0.24659 2.4186,-9.76906 5.7903,-16.55916 3.9772,-8.00948 5.7222,-13.63764 9.0833,-29.29482 1.152,-5.36673 3.4177,-13.87448 5.0349,-18.90612 2.445,-7.6071 2.776,-9.75882 1.9649,-12.77129 -1.9788,-7.34855 -3.902,-19.92716 -5.0938,-33.31492 -0.6732,-7.5625 -1.5819,-13.75 -2.0193,-13.75 -0.4374,0 -0.7301,-2.23523 -0.6504,-4.96718 0.08,-2.73195 -0.1698,-5.28195 -0.5545,-5.66667 -0.3847,-0.38471 -0.6995,-2.3735 -0.6995,-4.41952 0,-2.04602 -1.1269,-7.48352 -2.5042,-12.08333 -1.3774,-4.59982 -3.221,-11.0633 -4.0969,-14.3633 -0.876,-3.3 -1.9991,-6.4275 -2.4958,-6.95 -0.4967,-0.5225 -0.9031,-3.57445 -0.9031,-6.78212 0,-3.20766 -0.675,-7.44762 -1.5,-9.42212 -0.825,-1.97451 -1.5,-5.05495 -1.5,-6.84544 0,-1.79049 -0.675,-3.81563 -1.5,-4.50032 -0.825,-0.68469 -1.5,-2.25969 -1.5,-3.5 0,-1.24031 -0.7063,-2.84128 -1.5695,-3.5577 -0.8633,-0.71642 -1.3554,-2.12152 -1.0936,-3.12244 0.2617,-1.00092 0.1745,-1.81986 -0.1939,-1.81986 -1.3812,0 -3.3619,-10.87072 -3.8718,-21.25 -0.2904,-5.9125 -0.9203,-10.75 -1.3997,-10.75 -0.4793,0 -0.8715,-0.67119 -0.8715,-1.49153 0,-0.82034 -0.9,-2.05358 -2,-2.74054 -1.1,-0.68696 -2,-1.76763 -2,-2.40149 0,-0.63385 -0.675,-1.41148 -1.5,-1.72807 -2.0156,-0.77345 -2.0156,-13.11246 0,-16.63837 1.0908,-1.9081 1.4375,-6.8069 1.4646,-20.69098 0.02,-10.09356 0.4494,-18.44684 0.9654,-18.76577 0.5115,-0.31613 1.219,-3.15518 1.5721,-6.30901 1.1935,-10.65815 3.8493,-17.36299 11.3327,-28.61016 6.9154,-10.39357 25.5047,-28.00329 32.1674,-30.47236 1.9238,-0.71293 5.7478,-2.14009 8.4978,-3.17148 7.6838,-2.88181 19.8904,-4.21192 35.1366,-3.8287 10.7294,0.26969 14.5416,0.73305 16.8634,2.04973 1.65,0.9357 6.15,2.66082 10,3.83361 10.7329,3.26946 12.4462,4.20537 21.7806,11.89833 9.4288,7.7707 13.6617,13.13275 19.4826,24.67978 0.5232,1.03786 1.7514,3.40961 2.7294,5.27057 3.5072,6.67328 6.475,21.83947 7.1843,36.71337 0.4365,9.15318 0.1636,12.56883 -1.5579,19.5 -2.2566,9.08524 -4.9708,26.61561 -7.6876,49.65307 -0.3405,2.8875 -0.9911,5.25 -1.4458,5.25 -0.4547,0 -1.1394,1.4625 -1.5216,3.25 -0.3822,1.7875 -1.0362,3.7 -1.4533,4.25 -0.4171,0.55 -1.0669,3.13212 -1.444,5.73805 -0.3771,2.60593 -1.3301,5.38253 -2.1178,6.17022 -1.0681,1.06804 -1.4161,4.07002 -1.3688,11.8075 0.057,9.32173 -0.9871,14.94216 -3.1177,16.78423 -3.4755,3.00485 -4.3218,8 -1.3554,8 1.0869,0 1.3861,1.9226 1.3617,8.75 -0.026,7.23239 -0.4578,9.61721 -2.4908,13.75 -1.3528,2.75 -2.4637,5.47415 -2.4688,6.05366 -0.011,1.31664 -4.9803,11.3582 -6.6401,13.41891 -0.6766,0.84009 -2.3999,2.95835 -3.8295,4.70724 l -2.5992,3.17981 -0.4333,23.09137 c -0.319,17.00106 -0.8086,23.94296 -1.8563,26.32019 -0.7826,1.77585 -2.423,6.02506 -3.6453,9.44268 -2.005,5.60658 -2.1029,6.73048 -1.0013,11.5 0.6716,2.90738 1.8453,6.28281 2.6084,7.50096 0.7631,1.21815 1.4034,3.24315 1.4229,4.5 0.019,1.25685 0.6786,3.41018 1.4646,4.78518 0.786,1.375 1.4451,3.89365 1.4646,5.59699 0.019,1.70334 0.9354,4.1347 2.0354,5.40301 1.1,1.26831 2,2.90346 2,3.63366 0,0.7302 1.8088,5.13488 4.0196,9.78818 2.2108,4.6533 3.9303,8.82451 3.8211,9.26936 -0.1092,0.44484 1.4884,4.28846 3.5502,8.54137 2.0617,4.25291 3.4227,8.25994 3.0244,8.90451 -0.4526,0.73232 -0.2912,0.90428 0.4302,0.45841 0.6702,-0.41421 1.1545,-0.10442 1.1545,0.7385 0,1.55427 -2.4106,2.92206 -3.4022,1.93044 -0.3288,-0.32877 -0.5978,-1.51826 -0.5978,-2.64332 0,-1.74161 -0.4397,-1.53111 -2.9594,1.41666 -1.6276,1.90423 -2.9776,3.14622 -3,2.75998 -0.022,-0.38624 -1.2781,0.44656 -2.7906,1.85066 -4.035,3.74581 -6.5876,4.81686 -18.6155,7.81076 l -10.8654,2.70457 -32.6346,-0.43793 c -31.382,-0.42111 -41.1345,-1.32586 -41.1345,-3.81606 0,-0.46584 -0.6422,-0.60054 -1.4271,-0.29934 -2.369,0.90906 -9.9977,-3.09295 -14.9607,-7.84835 -5.6561,-5.41947 -6.7639,-4.78188 -2.0474,1.17834 1.8894,2.38758 3.4352,3.99763 3.4352,3.57789 0,-0.41975 0.67,-0.20709 1.489,0.47257 0.8189,0.67967 1.1994,1.70429 0.8455,2.27696 -0.3763,0.60888 -0.1586,0.74153 0.5243,0.31946 0.6423,-0.39695 3.5827,0.38385 6.5342,1.73512 2.9516,1.35126 7.6706,2.77374 10.4867,3.16106 2.8162,0.38732 5.1203,1.03941 5.1203,1.4491 0,1.02874 8.8417,1.41308 34,1.47792 23.337,0.0601 35.1826,-0.48485 36.0581,-1.65895 0.3069,-0.41166 3.2069,-1.23815 6.4445,-1.83664 7.4086,-1.36955 20.6316,-7.94453 22.8807,-11.37716 0.9375,-1.43081 2.1348,-2.33556 2.6606,-2.01058 1.4481,0.89496 1.144,2.47285 -0.4765,2.47285 -0.788,0 -1.7134,0.8845 -2.0565,1.96555 -0.3819,1.20326 -3.6076,3.37236 -8.3174,5.59293 -17.2467,8.13155 -21.0073,8.76783 -53.6935,9.08469 -23.0076,0.22303 -28.4527,-0.0158 -36.8242,-1.61545 z m 66.2187,-7.44647 c 3.5171,-0.89401 6.6256,-1.39443 6.908,-1.11204 0.2824,0.28239 1.0049,0.13717 1.6055,-0.32271 0.6006,-0.45989 3.342,-1.43151 6.092,-2.15917 5.7414,-1.5192 12.1008,-5.53579 15.8849,-10.0329 3.0214,-3.5907 3.2524,-5.59952 1.0119,-8.79824 -1.4777,-2.10977 -1.7319,-2.16254 -3.25,-0.67459 -3.532,3.46206 -14.0244,9.40183 -17.7384,10.04174 -2.1496,0.37038 -6.1381,1.30725 -8.8632,2.08194 -2.7304,0.7762 -6.434,1.131 -8.25,0.79033 -2.0633,-0.38708 -3.2952,-0.21715 -3.2952,0.45456 0,1.40404 -44.9818,1.36625 -46.7062,-0.0392 -0.6634,-0.54072 -1.6461,-0.71123 -2.1838,-0.37891 -1.4124,0.87287 -19.9928,-3.32682 -23.0368,-5.20695 -1.4153,-0.87415 -3.8107,-2.71659 -5.3232,-4.09431 -1.5125,-1.37773 -2.7662,-2.08326 -2.786,-1.56786 -0.02,0.5154 -1.0961,-0.35925 -2.3918,-1.94367 l -2.3559,-2.88075 -0.6876,3.13075 c -0.3782,1.72192 -1.1019,3.13076 -1.6082,3.13076 -2.5294,0 -0.3055,4.06134 4.9232,8.99077 6.5315,6.15765 10.5625,7.68136 29.3258,11.08517 13.4338,2.437 52.4009,2.12967 62.725,-0.49469 z m -6.8945,-12.16006 c 5.225,-0.86057 10.4,-1.64788 11.5,-1.74959 1.1,-0.1017 2.45,-0.45778 3,-0.7913 0.55,-0.33352 2.0125,-0.51823 3.25,-0.41047 1.2375,0.10776 2.25,-0.17886 2.25,-0.63695 0,-0.45808 0.3594,-0.72038 0.7987,-0.58288 1.611,0.50427 12.0874,-7.5613 13.1392,-10.11566 0.871,-2.11507 0.6708,-3.71847 -1.0158,-8.13434 -1.1553,-3.025 -2.5859,-6.9625 -3.1791,-8.75 -1.068,-3.21814 -2.7191,-4.41077 -2.7688,-2 -0.04,1.95966 -9.4397,7.84529 -14.1857,8.88276 -2.3587,0.51561 -5.8635,1.70918 -7.7885,2.65236 -7.0363,3.44754 -64,2.68421 -64,-0.85762 0,-0.41344 -1.8089,-1.05732 -4.0198,-1.43085 -2.2109,-0.37353 -4.6859,-1.34522 -5.5,-2.15932 -0.8141,-0.8141 -1.4802,-1.1924 -1.4802,-0.84066 0,0.35173 -1.3553,-0.32553 -3.0118,-1.50504 -1.6564,-1.17951 -2.7549,-2.56015 -2.4409,-3.0681 0.3139,-0.50794 0.068,-0.92353 -0.5473,-0.92353 -0.6149,0 -0.9137,-0.3375 -0.664,-0.75 0.2497,-0.4125 -0.1737,-1.33024 -0.941,-2.03943 -1.1454,-1.0587 -1.395,-1.02675 -1.395,0.17857 0,0.8074 -0.6911,2.15907 -1.5357,3.00372 -0.8447,0.84464 -1.5015,1.88928 -1.4596,2.32143 0.1122,1.15904 -3.1334,9.59128 -4.2304,10.99078 -0.6386,0.81466 -0.085,2.33174 1.7079,4.68267 4.9805,6.52985 13.7277,11.73171 20.5178,12.20172 1.925,0.13324 6.875,0.90644 11,1.71821 10.5694,2.07999 40.669,2.14446 53,0.11352 z m 2.3937,-23.72304 c 4.8916,-0.90658 9.6166,-2.29947 10.5,-3.09532 0.8835,-0.79586 2.7313,-1.7297 4.1063,-2.07521 4.9974,-1.25575 7.3009,-3.93673 7.4041,-8.6173 0.076,-3.4532 -0.2798,-4.42445 -1.7285,-4.7171 -1.0034,-0.20269 -2.6666,0.39361 -3.6959,1.32511 -1.0292,0.93149 -5.6083,2.75996 -10.1756,4.06326 -7.7664,2.2162 -9.9923,2.37122 -34.376,2.39402 -19.7978,0.0185 -27.1374,-0.31652 -30.5,-1.39225 -2.4354,-0.77915 -5.5652,-1.66252 -6.9549,-1.96304 -1.3898,-0.30052 -4.3794,-2.13211 -6.6436,-4.07021 l -4.1168,-3.52382 -1.6064,2.45167 c -2.0943,3.19628 -2.0304,4.11779 0.5349,7.72048 3.5851,5.03481 12.2922,9.87598 21.2696,11.82593 10.6721,2.31804 42.7231,2.13127 55.9828,-0.32622 z m -39.0422,-13.1717 c 0.311,-0.81046 -0.1722,-1.88633 -1.0736,-2.39083 -1.5064,-0.84301 -1.5088,-1.04754 -0.03,-2.52644 0.885,-0.88505 2.0913,-1.60918 2.6806,-1.60918 1.3526,0 1.4072,-2.67441 0.071,-3.5 -1.8059,-1.11608 -1.0457,-3.35441 1.25,-3.68045 1.5956,-0.22662 2.294,-1.04661 2.4014,-2.81955 0.262,-4.32469 0.3562,-4.53585 1.3387,-3 1.4223,2.22346 0.9166,9.09856 -0.7153,9.72477 -0.7644,0.29332 -1.1421,1.17875 -0.8394,1.96762 0.3027,0.78886 -0.1214,2.73345 -0.9425,4.3213 -0.8211,1.58784 -1.4929,3.35934 -1.4929,3.93665 0,0.67509 4.3209,1.04966 12.1084,1.04966 l 12.1084,0 -0.6507,-2.59266 c -0.5298,-2.11079 0.1673,-3.55122 3.7507,-7.75 2.4208,-2.83654 5.8857,-7.63234 7.6998,-10.65734 1.8141,-3.025 4.7311,-7.075 6.4821,-9 3.2697,-3.59453 5.8259,-8.40939 7.0309,-13.24309 0.376,-1.5087 1.0857,-2.49464 1.5771,-2.19098 0.4913,0.30366 0.8933,-0.37445 0.8933,-1.50691 0,-1.13246 0.3568,-2.05902 0.7929,-2.05902 0.4361,0 1.6342,-2.475 2.6624,-5.5 1.0283,-3.025 2.1339,-5.50096 2.4571,-5.50214 0.8102,-0.003 0.5921,-33.11245 -0.2668,-40.49786 -1.1128,-9.56805 -2.829,-15.871 -4.8087,-17.66029 -1.0103,-0.91316 -1.8369,-2.12034 -1.8369,-2.68261 0,-0.56228 -0.9188,-1.31394 -2.0418,-1.67036 -1.4028,-0.44524 -1.8632,-1.21067 -1.4712,-2.44591 0.3994,-1.25841 -1.0737,-3.5368 -4.9097,-7.59327 -3.0142,-3.18747 -5.2455,-6.17534 -4.9585,-6.63972 0.5483,-0.88724 -3.4619,-8.06739 -4.8262,-8.64117 -0.4359,-0.18334 -0.7926,-0.97084 -0.7926,-1.75 0,-0.77917 -0.45,-1.41667 -1,-1.41667 -0.55,0 -1,-0.45965 -1,-1.02144 0,-1.16081 -4.9225,-8.96182 -6.6121,-10.47856 -0.6127,-0.55 -1.8807,-3.475 -2.8178,-6.5 -0.9372,-3.025 -3.2098,-8.65 -5.0503,-12.5 -1.8406,-3.85 -4.6954,-9.80957 -6.3441,-13.24349 -1.6488,-3.43392 -3.2977,-8.0189 -3.6643,-10.18885 -0.4806,-2.84474 -1.0633,-3.79309 -2.089,-3.39952 -1.0205,0.39162 -1.4224,-0.24279 -1.4224,-2.24543 0,-1.53519 -0.8592,-4.62084 -1.9093,-6.85699 -1.2747,-2.71433 -2.0494,-7.03846 -2.3309,-13.00935 -0.2638,-5.59611 -0.8592,-9.0895 -1.5907,-9.33334 -1.4213,-0.47377 -1.5776,-6.22303 -0.1691,-6.22303 0.55,0 1,-0.92958 1,-2.06574 0,-1.13616 0.4938,-2.98848 1.0974,-4.11628 0.8747,-1.63445 0.6385,-2.94291 -1.1644,-6.44828 -1.244,-2.41875 -2.8579,-4.89243 -3.5865,-5.49706 -1.6183,-1.34308 -8.3465,-0.25972 -8.3465,1.34393 0,0.61927 -0.6918,1.89042 -1.5374,2.82478 -1.7753,1.96166 -3.021,10.14448 -1.9354,12.71368 1.471,3.48145 1.383,6.24497 -0.1988,6.24497 -1.3292,0 -1.4592,1.69607 -0.9684,12.63877 0.5176,11.54133 0.3964,12.85551 -1.3966,15.13486 -1.0799,1.37285 -1.9634,3.31345 -1.9634,4.31244 0,0.99899 -0.7134,4.42581 -1.5854,7.61514 -2.0038,7.32952 -4.0634,18.50593 -4.9695,26.9669 -0.5418,5.05886 -0.3874,6.76739 0.6764,7.48519 1.0439,0.70433 0.893,0.85929 -0.6215,0.6384 -1.9017,-0.27736 -1.984,0.18751 -1.6749,9.4583 0.2078,6.23169 -0.046,9.75 -0.7047,9.75 -0.5664,0 -1.3385,-1.64576 -1.7159,-3.65725 -0.827,-4.4083 0.3373,-25.73262 1.4256,-26.10947 0.7511,-0.26009 0.1107,-8.7014 -1.2695,-16.73328 l -0.6873,-4 2.0634,2.36078 2.0633,2.36079 0,-2.55837 c 0,-3.14771 -12.6315,-16.95802 -13.3622,-14.60919 -0.2474,0.7953 -1.0015,4.24837 -1.6757,7.67351 -1.2372,6.28524 -2.9621,7.60311 -2.9621,2.26315 0,-1.66495 0.7422,-3.36113 1.75,-3.99902 1.2532,-0.79327 1.3951,-1.25685 0.5,-1.63302 -1.4622,-0.61449 -1.6571,-3.53967 -0.327,-4.90863 0.5077,-0.5225 1.1192,-2.3 1.359,-3.95 0.3985,-2.74347 0.4991,-2.81332 1.176,-0.8169 0.4072,1.20071 2.2706,2.90932 4.1411,3.79692 3.5857,1.7015 4.6185,2.86873 1.6509,1.86574 -0.9625,-0.3253 0.019,1.03882 2.1816,3.03139 2.1625,1.99257 4.4875,3.62285 5.1667,3.62285 0.6793,0 1.4116,0.52967 1.6274,1.17705 0.5573,1.67195 2.7856,0.0435 2.7177,-1.98607 -0.055,-1.64981 -10.7384,-10.19098 -12.7468,-10.19098 -0.5557,0 -2.9627,-2.3625 -5.349,-5.25 -2.3862,-2.8875 -4.9031,-5.84464 -5.5931,-6.57143 -0.69,-0.72678 -1.2545,-2.14114 -1.2545,-3.14301 0,-1.00187 -0.675,-2.0806 -1.5,-2.39719 -0.8913,-0.34201 -1.5,-1.8459 -1.5,-3.70586 0,-1.72164 -0.7271,-4.6624 -1.6157,-6.53504 -0.8886,-1.87263 -1.3807,-4.30313 -1.0936,-5.40112 0.339,-1.29627 0.029,-1.99635 -0.8843,-1.99635 -0.7735,0 -1.4064,-0.60615 -1.4064,-1.34699 0,-0.74084 -0.8764,-2.35745 -1.9475,-3.59246 -1.0711,-1.23501 -2.1619,-2.76637 -2.4239,-3.40301 -1.1181,-2.71698 -2.6961,2.13567 -2.3336,7.17673 0.3152,4.38403 0.8778,5.72843 3.1585,7.54695 2.2414,1.78727 2.8377,3.165 3.1013,7.16574 1.1298,17.14915 3.936,33.78027 6.5283,38.68947 0.5043,0.95504 0.9312,2.75504 0.9487,4 0.017,1.24496 0.6925,3.13708 1.5,4.2047 0.8075,1.06762 1.4682,3.20512 1.4682,4.75 0,1.54488 0.3999,2.80887 0.8887,2.80887 0.4888,0 1.2016,1.6875 1.584,3.75 0.3824,2.0625 1.5574,5.15312 2.6113,6.86803 1.0538,1.71492 1.916,4.15449 1.916,5.42126 0,1.26678 0.6218,3.01366 1.3817,3.88197 1.9122,2.18482 3.0042,6.07874 1.7047,6.07874 -0.5765,0 -1.3307,-1.125 -1.6758,-2.5 -0.3451,-1.375 -0.9799,-2.5 -1.4106,-2.5 -0.4308,0 -1.0879,-1.21403 -1.4603,-2.69785 -0.5192,-2.0687 -0.882,-2.36636 -1.5556,-1.27639 -0.4832,0.7818 -0.502,1.65833 -0.042,1.94785 0.4602,0.28951 1.4195,2.55139 2.1319,5.02639 0.7124,2.475 1.8871,5.38763 2.6105,6.47251 0.7234,1.08487 1.3153,3.19582 1.3153,4.69098 0,1.49516 0.3893,2.95906 0.8651,3.25311 1.8281,1.12983 5.5536,32.42994 5.2089,43.76267 -0.062,2.0236 0.3466,3.96265 0.9071,4.30902 0.5604,0.34636 1.0189,1.91638 1.0189,3.48894 0,1.57256 0.3313,3.6835 0.7362,4.69098 0.5768,1.4353 0.8546,1.07422 1.2836,-1.66821 l 0.5475,-3.5 1.8485,3.45594 c 1.0167,1.90077 1.4516,3.59558 0.9664,3.76626 -3.7189,1.30816 -3.8178,1.87021 -1.9267,10.95461 2.9779,14.305 3.0682,17.12353 0.6537,20.38939 -1.1601,1.56905 -2.1092,3.94094 -2.1092,5.27086 0,1.32993 -0.6035,2.91895 -1.3412,3.53117 -0.7377,0.61221 -2.1105,5.50481 -3.0508,10.87244 -1.6052,9.16349 -3.1029,15.77939 -4.2471,18.7613 -1.2171,3.1717 8.6034,8.72141 19.6387,11.09817 8.779,1.89078 8.8193,1.88208 9.5597,-2.06451 0.3575,-1.90541 1.2778,-3.98551 2.0453,-4.62245 1.6733,-1.38868 1.7773,-0.26234 0.4882,5.28676 -0.4728,2.03496 -0.6121,3.94746 -0.3095,4.25 1.1017,1.10171 4.0172,0.51233 4.5682,-0.92349 z m 20.4176,-20.09064 c -0.3332,-0.33323 -0.3902,-1.79497 -0.1267,-3.24831 0.8314,-4.58471 2.0013,-4.48532 2.5317,0.21507 0.3049,2.70202 -1.04,4.39824 -2.405,3.03324 z m 2.4809,-9.21555 c -1.2375,-0.19765 -2.25,-1.00306 -2.25,-1.78981 0,-1.81061 1.0927,-1.81436 3.5573,-0.0122 2.2818,1.66848 1.8223,2.30187 -1.3073,1.80202 z m 4.5355,-2.97026 c -0.8385,-0.9625 -1.7727,-2.425 -2.0761,-3.25 -0.415,-1.12876 -0.571,-1.03658 -0.6305,0.37244 -0.066,1.5611 -0.332,1.66244 -1.6007,0.60944 -1.3479,-1.11866 -1.3055,-1.41455 0.3713,-2.58905 1.5145,-1.06076 2.4176,-1.08266 4.5141,-0.10944 3.018,1.40099 3.4271,2.68603 0.8864,2.78429 -1.3933,0.0539 -1.2914,0.28887 0.5,1.15281 1.2375,0.59683 2.25,1.46637 2.25,1.93232 0,1.47808 -2.6315,0.91437 -4.2145,-0.90281 z m 4.632,-2 c -0.2859,-0.9625 -1.1913,-3.05798 -2.012,-4.65662 -1.7899,-3.48642 -0.3502,-5.97364 2.0553,-3.55052 1.908,1.92198 3.2279,9.95714 1.6356,9.95714 -0.6375,0 -1.3931,-0.7875 -1.6789,-1.75 z m 4.5825,-3.19098 c 0,-1.06754 -0.3625,-2.16502 -0.8055,-2.43883 -1.5497,-0.95772 -6.4036,-11.58468 -6.5484,-14.33658 -0.08,-1.52733 -0.9336,-3.56596 -1.8961,-4.53029 -0.9625,-0.96432 -1.75,-2.41744 -1.75,-3.22915 0,-0.81171 -0.8983,-2.94921 -1.9963,-4.75 -2.1876,-3.58805 -2.6043,-7.28496 -0.9372,-8.31529 1.4178,-0.87622 1.6892,-0.49958 2.1911,3.04112 0.4422,3.11861 0.7781,4.10439 3.8772,11.37712 1.0259,2.40741 1.8652,4.74062 1.8652,5.1849 0,0.44428 0.3961,1.84958 0.8802,3.12288 0.4841,1.27331 0.8216,2.55842 0.75,2.85582 -0.072,0.2974 1.288,1.8724 3.0214,3.5 3.5289,3.31342 5.4319,10.45928 2.7855,10.45928 -0.7904,0 -1.4371,-0.87344 -1.4371,-1.94098 z m -32.6582,-2.82662 c -0.637,-0.40534 -1.4746,-2.42345 -1.8613,-4.48469 -0.5761,-3.07057 -0.412,-3.74771 0.9082,-3.74771 0.8862,0 1.6423,0.7875 1.6802,1.75 0.038,0.9625 0.2322,2.9875 0.4318,4.5 0.1996,1.5125 0.2811,2.74311 0.1811,2.73469 -0.1,-0.008 -0.703,-0.34696 -1.34,-0.75229 z m 35.6336,-2.4824 c -0.025,-3.279 -2.8247,-12.71197 -5.4169,-18.25 -2.2823,-4.8757 -3.0393,-8.82692 -1.5992,-8.34689 0.6829,0.22762 2.4526,3.99879 3.9327,8.38037 1.4801,4.38159 3.3998,9.31652 4.2659,10.96652 0.8661,1.65 1.8803,4.6875 2.2538,6.75 0.6033,3.33233 0.4511,3.75 -1.3664,3.75 -1.6358,0 -2.0502,-0.65068 -2.0699,-3.25 z m -5.1593,-7.19185 c -0.9261,-1.24246 -2.4158,-5.08361 -3.3103,-8.5359 -0.8946,-3.45229 -2.2411,-7.23209 -2.9922,-8.39957 -0.7511,-1.16747 -1.6808,-3.84611 -2.0659,-5.95252 -0.3851,-2.10641 -1.3184,-4.06705 -2.074,-4.35699 -1.508,-0.57868 -1.9507,-7.31317 -0.4807,-7.31317 1.2133,0 2.1624,2.69195 1.5301,4.33979 -0.2828,0.73688 0.1814,1.91698 1.0314,2.62244 0.85,0.70546 1.5455,2.03241 1.5455,2.94877 0,0.91637 0.9,3.43141 2,5.589 1.1,2.15759 2,4.86273 2,6.01144 0,1.14871 0.4194,2.51606 0.9321,3.03856 0.5127,0.5225 1.0752,2.3 1.25,3.95 0.1748,1.65 0.9293,3.47974 1.6766,4.0661 0.7473,0.58635 1.1973,1.78271 1,2.65857 -0.2927,1.29965 -0.6683,1.17708 -2.0426,-0.66652 z m 3.2152,-11.80815 c -1.2835,-3.9875 -2.6518,-7.7 -3.0407,-8.25 -1.306,-1.84685 -3.8216,-10.33568 -3.2363,-10.92096 0.3185,-0.31847 0,-0.57904 -0.7042,-0.57904 -0.8296,0 -1.1143,-0.88385 -0.8054,-2.5 0.2629,-1.375 0.1084,-2.5 -0.3432,-2.5 -0.4517,0 -1.3314,-1.9125 -1.9551,-4.25 -1.3376,-5.01391 -4.3931,-11.91638 -3.4307,-7.75 0.3176,1.375 1.1656,4.6375 1.8844,7.25 0.7188,2.6125 1.0353,4.74311 0.7034,4.73469 -1.2546,-0.0318 -3.2006,-1.70439 -2.9975,-2.57633 0.2042,-0.87687 -0.235,-2.32353 -2.1874,-7.20541 -1.3362,-3.34125 -1.1282,-5.20295 0.5814,-5.20295 1.854,0 1.8668,-0.49629 0.099,-3.84571 -0.7704,-1.45986 -2.6654,-6.81679 -4.211,-11.90429 -1.5457,-5.0875 -3.1653,-9.25 -3.5992,-9.25 -0.434,0 -0.789,-0.75555 -0.789,-1.679 0,-0.92345 -0.5363,-3.16214 -1.1918,-4.97487 -0.6555,-1.81272 -0.8758,-3.61182 -0.4897,-3.998 1.1498,-1.14979 3.5145,2.86092 4.2167,7.15187 0.36,2.2 1.4181,5.35 2.3514,7 0.9332,1.65 3.1889,7.725 5.0126,13.5 1.8238,5.775 3.7778,11.625 4.3422,13 2.7163,6.61745 2.4334,5.75504 5.9056,18 0.7018,2.475 1.2933,4.95 1.3145,5.5 0.021,0.55 0.601,1.35986 1.2885,1.79969 0.6875,0.43983 1.25,1.67733 1.25,2.75 0,1.07267 0.5025,1.95031 1.1166,1.95031 0.651,0 0.9178,1.0397 0.6399,2.49365 -0.2712,1.41871 0.1096,2.98024 0.8834,3.62244 1.4631,1.2143 1.8936,5.88391 0.5425,5.88391 -0.4497,0 -1.8677,-3.2625 -3.1511,-7.25 z m -60.3903,-0.95911 c -0.3375,-1.25999 -0.6198,-4.17683 -0.6274,-6.48187 -0.01,-2.30504 -0.4333,-4.45036 -0.9462,-4.76738 -1.3814,-0.85373 -0.9697,-6.54164 0.4735,-6.54164 0.6801,0 1.5424,1.6304 1.9162,3.62311 0.3738,1.99271 1.2114,4.5265 1.8613,5.63065 0.9212,1.56507 0.9061,2.10732 -0.068,2.46023 -1.5235,0.55171 -1.6736,3.28601 -0.1804,3.28601 1.3938,0 0.7723,4.23091 -0.6923,4.71256 -0.6174,0.20307 -1.3988,-0.66168 -1.7363,-1.92167 z m 19.359,1.20911 c 0,-0.55 0.45,-1 1,-1 0.55,0 1,0.45 1,1 0,0.55 -0.45,1 -1,1 -0.55,0 -1,-0.45 -1,-1 z m 49,-0.5 c 0,-0.825 0.45,-1.5 1,-1.5 0.55,0 1,0.675 1,1.5 0,0.825 -0.45,1.5 -1,1.5 -0.55,0 -1,-0.675 -1,-1.5 z m -62.4846,-1.47514 c -0.7006,-1.13352 0.393,-29.6537 1.3591,-35.44628 0.3597,-2.15678 1.2576,-4.1226 1.9952,-4.36849 1.0373,-0.34576 1.1715,0.31633 0.5921,2.92142 -0.4121,1.85267 -0.6963,4.88256 -0.6317,6.73308 0.065,1.85053 -0.3218,4.18572 -0.859,5.18931 -0.6563,1.22649 -0.6246,2.04219 0.097,2.48804 0.6653,0.41115 0.8184,2.17216 0.4027,4.63232 -0.3688,2.18295 -0.6703,5.62427 -0.6699,7.64737 3e-4,2.0231 -0.4205,4.46587 -0.9352,5.42837 -0.5147,0.9625 -0.5657,1.75 -0.1134,1.75 0.4523,0 0.8902,0.9 0.973,2 0.1574,2.0891 -1.1711,2.70527 -2.2096,1.02486 z m 46.9795,-8.63022 c -0.3386,-1.59205 -1.0077,-3.62674 -1.4869,-4.52153 -1.5697,-2.93131 -2.3192,-8.87311 -1.1193,-8.87311 0.6112,0 1.1115,0.7875 1.1118,1.75 3e-4,0.9625 0.9237,4.17905 2.0521,7.14788 1.3633,3.5869 1.7172,5.7323 1.0549,6.39465 -0.6624,0.66235 -1.2034,0.0256 -1.6126,-1.89789 z m 18.0956,0.7054 c -1.743,-1.92606 -1.3715,-4.70077 0.4765,-3.55863 0.957,0.59145 0.7459,-4.38192 -0.2583,-6.08664 -0.3094,-0.52512 -1.3455,-4.55477 -2.3025,-8.95477 -0.9571,-4.4 -2.1068,-8.9 -2.555,-10 -0.4482,-1.1 -1.0406,-3.35 -1.3163,-5 -1.3306,-7.96069 -4.2162,-20.41546 -4.8849,-21.08378 -1.0787,-1.07808 -0.9258,-5.41622 0.191,-5.41622 1.4592,0 1.9875,1.3506 2.9945,7.65634 0.5133,3.21401 1.6028,8.75576 2.4211,12.31499 0.8183,3.55923 1.2713,6.82173 1.0066,7.25 -0.2647,0.42827 -0.057,0.77867 0.4626,0.77867 0.519,0 1.253,2.475 1.6309,5.5 0.5657,4.5273 1.0282,5.5 2.6153,5.5 1.0604,0 1.928,-0.48214 1.928,-1.07143 0,-0.58928 0.675,-0.39643 1.5,0.42857 1.9632,1.9632 1.9109,3.01452 -0.1113,2.23851 -1.2352,-0.47397 -1.4433,-0.20712 -0.8916,1.14301 0.3959,0.96874 1.1421,3.22384 1.6584,5.01134 0.5162,1.7875 1.3532,3.25 1.8601,3.25 0.5069,0 0.6626,0.675 0.346,1.5 -0.886,2.30892 -2.3079,1.78651 -3.4022,-1.25 -0.5451,-1.5125 -1.4433,-3.65 -1.996,-4.75 -1.894,-3.76922 0.036,3.60859 2.1686,8.28988 1.0923,2.39759 1.8417,5.10803 1.6655,6.02321 -0.466,2.41946 -3.1435,2.56702 -5.207,0.28695 z m -52.8711,0.19588 c -0.7946,-1.2255 -2.4827,-15.34117 -2.487,-20.79592 -0.001,-1.65 -0.099,-13.575 -0.2179,-26.5 -0.1186,-12.925 0.063,-30.25 0.403,-38.5 0.3402,-8.25 0.8083,-19.5 1.0402,-25 0.3567,-8.45948 0.2638,-9.30676 -0.6029,-5.5 -0.5634,2.475 -1.1617,6.075 -1.3294,8 -0.4665,5.35618 -3.5112,22.02123 -5.7093,31.25 -1.2596,5.28846 -3.2578,4.91349 -2.4001,-0.45039 0.3695,-2.31021 1.0431,-4.67271 1.4971,-5.25 0.4539,-0.57728 1.0903,-3.07461 1.4142,-5.54961 0.3239,-2.475 1.5518,-11.25 2.7287,-19.5 2.3104,-16.1954 2.4007,-16.9057 4.107,-32.28493 1.2914,-11.64018 3.4659,-15.63913 2.5934,-4.76927 -0.5669,7.06304 0.4788,12.95701 2.533,14.27654 1.5465,0.99342 7.4087,12.837 8.3045,16.77766 0.375,1.65 1.177,3.62529 1.7822,4.38953 0.6052,0.76424 1.6859,3.46424 2.4015,6 0.7156,2.53576 1.8075,6.41047 2.4265,8.61047 0.6189,2.2 1.4363,4.225 1.8164,4.5 0.38,0.275 1.0137,2.25329 1.408,4.3962 0.3943,2.14291 1.3095,4.84291 2.0337,6 0.7243,1.15709 1.8672,4.5788 2.5399,7.6038 0.6727,3.025 1.6706,6.625 2.2175,8 1.6474,4.14185 3.8626,13.25112 3.3476,13.76611 -0.2648,0.26483 -1.1288,-1.03671 -1.92,-2.8923 -1.8947,-4.44368 -7.6472,-23.02752 -7.6472,-24.70477 0,-0.97242 -0.4066,-0.90526 -1.5714,0.25953 -2.0814,2.08134 -2.1308,2.05388 -2.6482,-1.47152 -0.3297,-2.24602 -0.097,-2.90897 0.8865,-2.53138 0.8889,0.34112 1.3331,-0.31092 1.3331,-1.95705 0,-1.35774 -0.45,-2.46862 -1,-2.46862 -0.55,0 -1,-0.675 -1,-1.5 0,-0.825 -0.3678,-1.5 -0.8174,-1.5 -0.9469,0 -4.185,-9.75665 -4.1777,-12.58789 0.01,-2.41712 -3.2542,-11.8007 -4.2549,-12.24544 -0.4125,-0.18334 -0.75,-1.19584 -0.75,-2.25 0,-1.05417 -0.3513,-1.91667 -0.7808,-1.91667 -1.056,0 -3.2906,-6.07541 -2.6286,-7.14654 0.2901,-0.4694 0.083,-0.85346 -0.4602,-0.85346 -0.5431,0 -1.5996,-0.61207 -2.3477,-1.36015 -1.1469,-1.14687 -1.3705,0.93085 -1.4261,13.25 -0.036,8.03558 -0.2571,31.03515 -0.4908,51.11015 -0.2337,20.075 -0.046,40.84164 0.4171,46.14809 0.9328,10.68803 0.6586,19.03284 -0.5635,17.14783 z m 17.7806,-1.29592 c -0.3399,-0.55 0.083,-1 0.941,-1 0.8574,0 1.559,0.45 1.559,1 0,0.55 -0.4234,1 -0.941,1 -0.5175,0 -1.2191,-0.45 -1.559,-1 z m -0.9723,-4.25 c -0.6055,-1.84784 -2.6169,-12.3069 -2.928,-15.22508 -0.1483,-1.39046 -0.5689,-2.8274 -0.9346,-3.19319 -0.3658,-0.36578 -0.6651,-2.13851 -0.6651,-3.93938 0,-1.80087 -0.3907,-3.51577 -0.8682,-3.81089 -0.4775,-0.29511 -1.1655,-2.77818 -1.529,-5.51792 -0.3634,-2.73974 -1.0386,-5.21485 -1.5004,-5.50025 -0.4618,-0.2854 -1.1607,-3.77756 -1.5532,-7.76035 -0.3924,-3.98279 -1.1052,-7.97322 -1.5838,-8.86761 -1.3147,-2.45646 -1.6754,-22.18472 -0.4135,-22.61295 0.6659,-0.226 1.5183,4.856 2.3231,13.85132 0.6991,7.81456 1.8953,15.41529 2.6582,16.89051 0.7629,1.47522 1.1664,2.90285 0.8967,3.17251 -0.9041,0.90414 2.8538,21.24379 4.2203,22.84202 0.7424,0.86831 1.3498,3.03539 1.3498,4.81574 0,1.78035 0.3906,3.99492 0.868,4.92126 1.2754,2.47461 2.0368,11.18426 0.9778,11.18426 -0.4997,0 -1.0929,-0.5625 -1.3181,-1.25 z m 31.4723,0.28896 c 0,-0.52858 -0.8362,-1.76608 -1.8582,-2.75 -1.022,-0.98393 -2.1223,-3.49896 -2.4452,-5.58897 -0.5496,-3.55743 -0.447,-3.75697 1.6081,-3.12577 1.2074,0.37083 2.2831,0.74361 2.3904,0.8284 0.1072,0.0848 0.3322,2.27853 0.5,4.87497 0.1677,2.59644 0.6424,4.72116 1.0549,4.72161 0.4125,4.4e-4 0.75,0.4508 0.75,1.0008 0,0.55 -0.45,1 -1,1 -0.55,0 -1,-0.43247 -1,-0.96104 z m 2.2116,-2.93818 c -0.6664,-1.86958 -1.1714,-4.79458 -1.1222,-6.5 0.077,-2.6733 0.2829,-2.41147 1.4931,1.89922 1.6621,5.9203 1.3739,9.49553 -0.3709,4.60078 z m -5.9616,-9.87577 c -1.6333,-0.26431 -2.25,-1.04646 -2.25,-2.85358 0,-1.405 0.4356,-2.22023 1,-1.87143 0.55,0.33992 1.0143,0.029 1.0318,-0.69098 0.02,-0.80736 0.5945,-0.56511 1.5,0.63211 0.8075,1.06762 1.4682,1.39901 1.4682,0.73643 0,-1.65369 -2.2294,-5.50443 -3.75,-6.47725 -0.6875,-0.43983 -1.2431,-2.23983 -1.2347,-4 0.012,-2.4341 0.2474,-2.84118 0.9847,-1.70031 0.6462,1 0.9745,1.08333 0.9847,0.25 0.01,-0.6875 0.4653,-1.25 1.0153,-1.25 0.55,0 1,1.37958 1,3.06574 0,1.68616 0.3908,3.82366 0.8684,4.75 0.4776,0.92634 1.1632,3.31955 1.5235,5.31824 0.7085,3.9296 -0.1148,4.74273 -4.1419,4.09103 z m -3.0125,-7.38751 c -0.6806,-0.68062 -1.2375,-2.69036 -1.2375,-4.46607 0,-1.77572 -0.675,-3.90357 -1.5,-4.72857 -0.825,-0.825 -1.5,-3.08059 -1.5,-5.01241 0,-1.93183 -0.45,-3.79053 -1,-4.13045 -0.55,-0.33992 -1,-1.62343 -1,-2.85225 0,-2.58743 -4.5874,-19.35325 -5.9648,-21.80016 -1.1884,-2.1109 -6.0352,-18.77875 -6.0352,-20.75436 0,-1.13858 0.2774,-1.21586 1.1679,-0.32535 1.7118,1.7118 3.9944,8.14171 4.5198,12.73212 0.2518,2.2 1.1001,5.41801 1.8851,7.15113 0.785,1.73312 1.4419,3.75812 1.4598,4.5 0.044,1.82483 3.4917,11.70653 4.4017,12.61647 0.4005,0.40057 0.4143,-0.5227 0.031,-2.05171 -0.3838,-1.529 -0.7579,-3.55308 -0.8313,-4.49795 -0.073,-0.94487 -0.6961,-2.31258 -1.3836,-3.03937 -0.6875,-0.72678 -1.2483,-2.30178 -1.2462,-3.5 0,-1.86313 0.2971,-1.69737 2.0299,1.14479 2.3829,3.90856 4.5768,3.68507 4.2039,-0.42825 -0.2266,-2.49981 -0.1119,-2.64628 0.8402,-1.07267 0.646,1.0676 0.7908,2.93145 0.3496,4.5 -0.4143,1.47266 -0.645,3.35256 -0.5127,4.17756 0.1664,1.0378 -0.2616,0.88374 -1.3889,-0.5 -1.5907,-1.95264 -1.612,-1.9408 -0.897,0.5 0.4028,1.375 0.7626,3.7375 0.7996,5.25 0.037,1.5125 0.3757,2.75 0.7526,2.75 1.0362,0 0.6664,6.41 -0.4103,7.11084 -0.5161,0.33596 -0.2256,0.88433 0.6455,1.21861 1.0487,0.40242 1.6238,0.0271 1.7023,-1.11083 0.1695,-2.46018 0.1858,-2.24734 -0.5934,-7.71862 -0.9784,-6.86932 0.6366,-4.79773 2.1895,2.80859 0.8101,3.96812 0.9088,6.31111 0.2747,6.52474 -0.5441,0.18334 -0.9893,0.97084 -0.9893,1.75 0,0.77917 -0.765,1.41667 -1.7,1.41667 -1.3222,0 -1.4333,0.26667 -0.5,1.2 0.66,0.66 1.2,2.595 1.2,4.3 0,1.705 0.5007,3.60063 1.1125,4.2125 0.6119,0.61187 0.9438,1.61875 0.7375,2.2375 -0.2676,0.80303 -0.7291,0.77083 -1.6125,-0.1125 z m 11.4132,-0.30547 c -0.6014,-1.5671 0.6431,-2.90493 1.7098,-1.83818 0.953,0.95302 0.7726,3.30615 -0.2535,3.30615 -0.4912,0 -1.1465,-0.66059 -1.4563,-1.46797 z m -0.984,-4.1987 c -1.258,-1.25797 -0.6666,-4.33333 0.8333,-4.33333 0.9333,0 1.5,0.94444 1.5,2.5 0,2.42787 -0.9737,3.19294 -2.3333,1.83333 z m -21.6853,-6.08333 c -0.01,-0.9625 -1.8103,-6.91992 -4,-13.23872 -2.1898,-6.3188 -3.9814,-12.98588 -3.9814,-14.81574 0,-1.82986 -0.4777,-4.21969 -1.0617,-5.31073 -0.5839,-1.09105 -0.9173,-3.19896 -0.741,-4.68426 0.3057,-2.57504 0.8904,-1.05027 7.8106,20.37045 0.5456,1.68905 0.9921,4.18655 0.9921,5.55 0,1.36345 0.4064,2.9065 0.903,3.429 1.1285,1.18714 1.8856,10.45 0.8542,10.45 -0.4165,0 -0.7656,-0.7875 -0.7758,-1.75 z m 19.1499,-4 c -0.7179,-2.6125 -1.6801,-5.875 -2.1382,-7.25 -1.237,-3.71318 -1.918,-11 -1.0279,-11 0.4262,0 1.2345,1.9125 1.7964,4.25 0.5618,2.3375 1.7453,7.24886 2.6299,10.91413 1.8537,7.68017 1.8702,7.83587 0.8268,7.83587 -0.4299,0 -1.3691,-2.1375 -2.087,-4.75 z m -63.1313,2.64235 c 0,-0.42587 0.4619,-1.05981 1.0265,-1.40874 0.5646,-0.34893 0.9613,-1.16299 0.8815,-1.80902 -0.3839,-3.10996 0.074,-3.93455 1.5185,-2.73555 1.786,1.48225 0.253,6.72763 -1.9662,6.72763 -0.8032,0 -1.4603,-0.34845 -1.4603,-0.77432 z m 57,-0.39235 c 0,-0.825 0.1769,-1.5 0.393,-1.5 0.2162,0 0.652,0.675 0.9686,1.5 0.3166,0.825 0.1397,1.5 -0.393,1.5 -0.5327,0 -0.9686,-0.675 -0.9686,-1.5 z m -67.3125,-1.14583 c -1.5501,-1.55009 -0.2654,-32.82935 1.3084,-31.85669 0.3917,0.24205 0.9778,-3.66085 1.3025,-8.67312 0.3247,-5.01226 1.0654,-9.58821 1.646,-10.16878 0.5806,-0.58057 1.0556,-1.86558 1.0556,-2.85558 0,-0.99 0.4234,-1.8 0.941,-1.8 1.3843,0 2.2397,1.77031 1.1737,2.42911 -0.5049,0.31201 -1.2229,3.38061 -1.5957,6.8191 -0.3728,3.43848 -1.1376,8.04392 -1.6995,10.23431 -0.562,2.19038 -1.1922,11.18734 -1.4004,19.99323 -0.3484,14.73722 -0.8657,17.74429 -2.7316,15.87842 z m 12.7459,-12.68745 c -0.4779,-1.23177 -0.01,-2.53506 1.4276,-3.97222 2.5261,-2.52604 2.9013,-0.69066 0.6759,3.3055 -1.2626,2.26717 -1.4585,2.32926 -2.1035,0.66672 z m 1.0736,-8.65531 c -0.4086,-0.66116 -0.2806,-2.17171 0.2844,-3.35676 0.565,-1.18506 1.2899,-2.97067 1.6109,-3.96803 0.3209,-0.99736 1.076,-1.50907 1.6778,-1.13713 0.7879,0.48696 0.7899,0.98053 0.01,1.76338 -0.598,0.59792 -1.0941,2.00963 -1.1025,3.13713 -0.022,2.95083 -1.5222,5.10726 -2.4776,3.56141 z m 46.4383,-5.11364 c -0.6188,-1.15623 -0.9277,-2.85702 -0.6865,-3.77953 0.2413,-0.92251 -0.1683,-2.24425 -0.9101,-2.93719 -1.2251,-1.14447 -1.9435,-5.18105 -0.9219,-5.18105 0.9175,0 3.6425,6.58093 4.2198,10.19125 0.6766,4.23122 0.01,4.90134 -1.7013,1.70652 z m -4.9384,-7.86915 c -0.656,-2.73425 -0.9934,-5.54675 -0.7498,-6.25 0.2436,-0.70324 0.9055,0.74638 1.4708,3.22138 0.5653,2.475 1.356,5.2875 1.757,6.25 0.4128,0.99096 0.2922,1.75 -0.2782,1.75 -0.554,0 -1.5439,-2.23712 -2.1998,-4.97138 z m -54.0069,-25.02862 c 0,-0.55 0.45,-1 1,-1 0.55,0 1,0.45 1,1 0,0.55 -0.45,1 -1,1 -0.55,0 -1,-0.45 -1,-1 z m -9.3333,-11.66667 c -0.3667,-0.36666 -0.6667,-1.49166 -0.6667,-2.5 0,-2.24999 2.5559,-2.43293 3.3963,-0.24309 0.972,2.53321 -0.9789,4.49381 -2.7296,2.74309 z m -4.6315,-9.26759 c -1.5352,-2.86852 -1.2702,-4.95916 0.3568,-2.81574 0.7307,0.9625 1.8414,1.75 2.4682,1.75 0.6269,0 1.1398,0.675 1.1398,1.5 0,2.15152 -2.7417,1.85124 -3.9648,-0.43426 z m 6.7148,-1.02864 c -1.9485,-1.89829 -2.243,-3.0371 -0.7852,-3.0371 0.9671,0 3.4884,3.92033 2.8662,4.45663 -0.1821,0.15694 -1.1185,-0.48185 -2.081,-1.41953 z m 26.9759,-42.33264 c -0.8272,-1.26254 -2.5055,-5.42504 -3.7295,-9.25 -1.224,-3.82495 -2.5336,-7.58684 -2.9102,-8.35976 -0.4107,-0.84294 0.2778,-2.36782 1.7206,-3.8106 2.7398,-2.73981 4.3874,-2.26118 1.8537,0.53851 -2.224,2.45752 -2.1403,3.0622 1.3395,9.67739 1.65,3.1367 3,6.53084 3,7.54253 0,1.01169 0.45,2.11755 1,2.45747 1.2363,0.76408 1.3262,3.5 0.115,3.5 -0.4867,0 -1.5618,-1.03299 -2.3891,-2.29554 z m -1.4938,-23.70446 c -0.7809,-1.25034 -0.8593,-2 -0.2092,-2 0.5719,0 1.2979,0.67242 1.6133,1.49426 0.3153,0.82184 0.9762,1.24528 1.4686,0.94098 0.4923,-0.3043 0.8952,-0.0767 0.8952,0.50574 0,1.78632 -2.4462,1.17542 -3.7679,-0.94098 z m 47.2026,256.10563 c 0.304,-0.4919 2.2431,-1.13066 4.309,-1.41946 12.0671,-1.68688 13.8091,-3.35091 13.6009,-12.99186 -0.2031,-9.39998 -1.2766,-16.94489 -2.5887,-18.19431 -0.7225,-0.68788 -0.853,-0.44062 -0.4183,0.79221 0.3476,0.98572 0.9276,6.65944 1.2889,12.60827 0.6185,10.1832 0.5317,10.94136 -1.4848,12.95779 -1.1779,1.17795 -3.1542,2.1101 -4.3917,2.07144 -1.8304,-0.0572 -1.9304,-0.1971 -0.5366,-0.75023 1.2379,-0.49128 1.4503,-1.09612 0.7653,-2.17972 -1.5985,-2.52869 -1.1631,-4.19307 0.9236,-3.53077 1.6352,0.51899 1.9106,0.0721 1.9614,-3.18261 0.033,-2.08251 0.09,-5.13638 0.1272,-6.78638 0.1776,-7.81632 -0.1472,-9.61514 -1.5293,-8.46816 -0.7385,0.61291 -1.0963,1.75649 -0.7952,2.54127 0.3298,0.85941 -0.072,1.42689 -1.0097,1.42689 -0.8565,0 -1.9172,0.63504 -2.357,1.4112 -0.4398,0.77616 -2.1593,2.91366 -3.821,4.75 -5.1962,5.74213 -12.1646,15.24003 -12.9046,17.5888 -0.6633,2.10544 -0.4192,2.25 3.7995,2.25 2.4796,0 4.7571,-0.40247 5.0611,-0.89437 z m 31.3583,-117.3314 c 1.4888,-3.14917 3.2106,-5.73667 3.8262,-5.75 0.6155,-0.0133 1.3838,-1.65504 1.7072,-3.64826 0.3235,-1.99321 1.2624,-4.36915 2.0866,-5.27985 1.24,-1.3702 1.3297,-2.8477 0.52,-8.5654 -1.4354,-10.13571 -2.0402,-10.19961 -4.514,-0.47697 -0.9021,3.54544 -2.4904,8.21827 -3.5296,10.38408 -1.0392,2.16581 -1.9044,4.64081 -1.9227,5.5 -0.018,0.85919 -0.9362,2.64671 -2.0399,3.97225 -1.5019,1.80388 -2.2934,2.12337 -3.1465,1.27021 -1.2262,-1.22618 -0.107,-4.14481 3.5866,-9.35347 1.2226,-1.72407 1.7106,-3.64093 1.3746,-5.39888 -0.7231,-3.78265 3.4238,-15.42624 8.4666,-23.77243 4.5031,-7.45283 5.5944,-12.09654 5.7189,-24.33408 0.047,-4.59722 0.5572,-7.66277 1.4195,-8.52509 0.7406,-0.74058 1.6713,-3.13522 2.0683,-5.32143 0.397,-2.1862 0.9728,-5.01913 1.2796,-6.29541 0.5455,-2.26946 0.4133,-2.31401 -6.0105,-2.02552 -3.6126,0.16224 -6.9018,-0.0385 -7.3094,-0.44617 -1.5847,-1.58466 1.8155,-3.04295 7.2828,-3.12347 5.3775,-0.0792 5.8426,-0.28391 7.6435,-3.36374 2.7586,-4.71757 3.7848,-24.03357 1.3492,-25.39656 -1.9796,-1.10786 -2.1767,-2.82404 -0.3243,-2.82404 0.7291,0 2.3231,-1.06171 3.5422,-2.35936 l 2.2165,-2.35936 -2.7922,-5.6304 c -3.2941,-6.64254 -4.941,-7.04236 -10.1602,-2.46676 -6.807,5.96758 -9.132,9.68171 -9.132,14.58809 0,4.31951 -0.3655,4.87325 -9.25,14.01494 -14.1697,14.57987 -16.3174,16.35433 -25.9776,21.46285 -10.9267,5.77828 -16.942,6.38353 -22.3613,2.25 -7.2411,-5.52308 -6.8329,-1.08207 0.7051,7.67104 5.4209,6.29478 5.8593,7.31731 2.7929,6.51545 -1.7952,-0.46945 -2.0055,-0.20676 -1.4874,1.85744 0.3318,1.32233 1.6685,3.97376 2.9703,5.89208 2.249,3.31403 2.4477,3.39861 3.9875,1.69718 0.8913,-0.98487 1.6205,-2.26598 1.6205,-2.84692 0,-0.58094 1.1393,-1.80277 2.5319,-2.71519 1.3925,-0.91242 2.2659,-2.08917 1.9409,-2.61501 -0.3249,-0.52584 -0.1143,-0.95607 0.4682,-0.95607 0.5824,0 0.9465,-0.50625 0.809,-1.125 -0.1375,-0.61875 0.2,-1.21875 0.75,-1.33333 0.55,-0.11459 0.6116,-0.004 0.1368,0.24605 -0.4747,0.24991 -0.3722,0.75778 0.2278,1.12859 0.6868,0.42445 -0.3827,2.45742 -2.8869,5.48784 -2.1877,2.64749 -3.9727,5.32712 -3.9666,5.95473 0.01,0.62762 1.1637,-0.32138 2.5725,-2.10888 2.539,-3.22168 5.4164,-4.32841 5.4164,-2.08333 0,0.64166 -0.2452,0.92147 -0.5449,0.62179 -0.2997,-0.29968 -1.84,0.75032 -3.4231,2.33333 -1.583,1.58302 -3.6403,2.87821 -4.5717,2.87821 -1.2974,0 -1.5295,0.5263 -0.9922,2.25 0.3857,1.2375 1.189,4.1625 1.7851,6.5 0.8645,3.39034 1.5306,4.25 3.2928,4.25 1.215,0 2.7693,-0.675 3.454,-1.5 0.6847,-0.825 2.0936,-1.5 3.1309,-1.5 1.578,0 1.6992,0.29917 0.742,1.83194 -0.6293,1.00757 -2.4395,2.32092 -4.0228,2.91855 l -2.8788,1.0866 1.9803,3.35637 c 4.0712,6.90005 8.6739,9.91435 7.3379,4.80554 -0.2922,-1.1173 -0.03,-1.999 0.5939,-1.999 0.6141,0 1.1451,0.5625 1.18,1.25 0.035,0.6875 0.4703,0.2375 0.9678,-1 0.7392,-1.83908 1.6814,-2.25 5.1591,-2.25 4.136,0 4.1927,0.0434 2.0322,1.5567 -1.2224,0.85619 -2.2225,2.37871 -2.2225,3.38337 0,1.00467 -0.8365,2.04541 -1.8588,2.31276 -2.7102,0.70872 -3.7082,5.61211 -1.4747,7.24527 1.4766,1.07974 1.5475,1.5391 0.4428,2.87021 -1.1276,1.3586 -0.6941,2.29511 3.0377,6.56318 2.3942,2.73815 4.8512,4.99872 5.4601,5.02348 0.609,0.0248 3.4268,-2.27461 6.2619,-5.10973 2.8352,-2.83512 5.4869,-4.79851 5.8929,-4.3631 0.406,0.43542 0.1756,0.99256 -0.5119,1.2381 -0.6875,0.24553 -1.25,1.29309 -1.25,2.32791 0,1.03482 -1.0032,2.41839 -2.2294,3.0746 -1.2261,0.65622 -2.7931,1.75687 -3.4821,2.4459 -0.689,0.68903 -1.8233,1.45916 -2.5206,1.71141 -1.0175,0.36807 -1.0211,0.87668 -0.018,2.57572 0.6875,1.16439 1.25,2.60533 1.25,3.20208 0,0.59675 0.675,1.76 1.5,2.585 0.825,0.825 1.5,2.39571 1.5,3.49046 0,1.09475 0.783,3.02858 1.7401,4.29739 l 1.7401,2.30693 2.3029,-3.11882 c 1.2665,-1.71535 3.521,-5.69542 5.0098,-8.84459 z m -22.6187,-15.08868 c -1.1959,-1.27295 -2.1743,-2.65718 -2.1743,-3.07606 0,-0.9598 5.8695,3.62206 5.9447,4.64051 0.1065,1.4441 -1.6151,0.72975 -3.7704,-1.56445 z m 5.2941,1.26335 c -0.7854,-1.27085 1.2971,-3.9489 3.0707,-3.9489 0.7118,0 1.5212,-0.5625 1.7986,-1.25 0.2984,-0.73946 0.5366,-0.7991 0.5833,-0.14602 0.1258,1.75882 -4.7282,6.51698 -5.4526,5.34492 z m -26.4193,-38.6989 c 0.027,-0.4125 1.8209,-2.55 3.9866,-4.75 3.4416,-3.49608 3.8812,-3.70395 3.4891,-1.65004 -0.6567,3.44095 -7.6752,9.44952 -7.4757,6.40004 z m 35.5183,-46.5 c 0.7573,-2.42661 2.195,-3.71034 4.1826,-3.73469 0.6875,-0.008 1.2598,-0.57781 1.2717,-1.26531 0.012,-0.6875 2.262,-3.48429 5,-6.21509 7.7123,-7.69187 5.9612,-3.00682 -2.1529,5.76011 -7.3441,7.93493 -9.522,9.36607 -8.3014,5.45498 z m 22.4326,-1.75 c 0,-0.55 0.675,-1 1.5,-1 0.825,0 1.5,0.45 1.5,1 0,0.55 -0.675,1 -1.5,1 -0.825,0 -1.5,-0.45 -1.5,-1 z m -9.6004,-16.40112 c -0.3225,-0.84034 0.3969,-2.90878 1.5987,-4.59653 1.2018,-1.68775 2.3091,-4.19868 2.4607,-5.57985 0.25,-2.2774 4.0625,-7.4445 5.4653,-7.40719 0.3166,0.008 1.2507,0.46174 2.0757,1.00736 1.2932,0.85526 1.2172,1.23233 -0.5513,2.73469 -2.6589,2.25878 -7.4487,8.80229 -7.4487,10.17592 0,0.5867 -0.4359,1.06672 -0.9686,1.06672 -0.5328,0 -0.7271,0.62948 -0.4318,1.39885 0.2952,0.76937 0.053,1.69789 -0.5385,2.06338 -0.5914,0.36549 -1.3391,-0.023 -1.6615,-0.86335 z m 7.6004,-3.09888 c 0,-0.825 0.45,-1.5 1,-1.5 0.55,0 1,0.675 1,1.5 0,0.825 -0.45,1.5 -1,1.5 -0.55,0 -1,-0.675 -1,-1.5 z m -52.55,32.38271 c 0.5225,-0.48549 2.3225,-0.88568 4,-0.8893 1.6775,-0.004 4.4,-0.90066 6.05,-1.99341 1.65,-1.09275 3.6276,-1.98979 4.3948,-1.99341 1.4143,-0.007 3.5142,-1.77819 9.3633,-7.89918 1.783,-1.86592 5.2683,-5.46592 7.7449,-8 7.1413,-7.30673 8.4349,-9.83025 8.9941,-17.5445 0.4675,-6.44817 0.6191,-6.82031 2.1514,-5.28011 1.5337,1.54164 1.8643,1.40422 4.75,-1.97403 1.7058,-1.99706 3.1015,-4.21768 3.1015,-4.93471 0,-1.81433 2.9079,-3.18268 7.5588,-3.55693 3.7556,-0.30219 4.0442,-0.11291 6.1294,4.01931 l 2.1882,4.33645 1.1169,-4.33645 c 0.6144,-2.38504 1.8272,-6.54562 2.6951,-9.24572 1.7077,-5.31227 1.5288,-9.69514 -1.2282,-30.09072 -2.3081,-17.07433 -2.6365,-18.92397 -3.566,-20.08715 -0.4778,-0.59793 -2.6533,-4.55646 -4.8345,-8.79672 -2.1811,-4.24026 -5.4493,-9.58785 -7.2627,-11.88353 -3.5871,-4.54114 -10.3637,-11.00692 -12.168,-11.60988 -0.621,-0.20751 -2.1068,-1.26586 -3.3019,-2.3519 -2.1547,-1.95804 -16.819,-8.77082 -18.879,-8.77082 -0.5898,0 -2.8445,-0.84029 -5.0103,-1.8673 -6.7199,-3.18657 -22.0289,-4.62671 -33.8128,-3.18084 -10.5727,1.29726 -11.3684,1.49526 -21.125,5.25686 -6.482,2.49908 -19.5,10.41354 -19.5,11.85524 0,0.48657 -1.3327,1.57386 -2.9616,2.41618 -1.6289,0.84233 -5.3414,4.56639 -8.25,8.27568 -6.9789,8.90009 -8.3442,11.14856 -10.7743,17.74418 -0.4053,1.1 -1.4743,3.70277 -2.3755,5.78393 -0.9012,2.08116 -1.6386,4.79353 -1.6386,6.02749 0,1.23396 -0.6042,3.13119 -1.3427,4.21607 -3.9277,5.7703 -4.7924,39.45579 -1.117,43.51708 0.8028,0.8871 1.4597,2.04448 1.4597,2.57194 0,0.52747 1.3317,2.51704 2.9594,4.42126 2.032,2.37734 2.972,4.56757 3,6.98972 0.022,1.94013 0.7444,4.53235 1.6047,5.7605 0.8966,1.28013 1.2946,3.08197 0.9326,4.22251 -0.3547,1.11745 -0.1746,1.9895 0.4109,1.9895 0.5733,0 2.0011,2.1044 3.1728,4.67646 2.0648,4.53261 7.7997,10.81237 12.9196,14.14718 1.375,0.89559 2.8599,2.20165 3.2997,2.90235 0.4398,0.70071 1.3044,1.27401 1.9212,1.27401 0.6169,0 1.8926,0.69773 2.8349,1.55052 1.574,1.42445 1.8001,1.30167 2.7802,-1.51004 0.5868,-1.6833 1.3719,-5.75604 1.7446,-9.05052 0.5768,-5.09814 0.4404,-5.98996 -0.9163,-5.98996 -0.8766,0 -2.0756,-0.9 -2.6643,-2 -0.5887,-1.1 -1.9545,-2 -3.0352,-2 -1.0806,0 -1.9648,-0.62838 -1.9648,-1.39641 0,-0.76802 -1.6875,-2.77912 -3.75,-4.4691 -6.6353,-5.43683 -8.0319,-7.15849 -8.7012,-10.72578 -0.4385,-2.33781 -1.397,-3.78068 -2.8878,-4.3475 -1.9418,-0.73827 -2.2638,-1.66857 -2.481,-7.16727 -0.1372,-3.47538 -0.5714,-6.56077 -0.9648,-6.85641 -0.7469,-0.56134 -1.259,-2.1633 -1.7704,-5.53753 -0.1667,-1.1 -0.6287,-3.575 -1.0266,-5.5 -0.7171,-3.46904 -0.7054,-3.48394 1.3298,-1.68486 1.3305,1.17606 2.2843,1.44162 2.7091,0.75426 0.3606,-0.58349 -0.4947,-1.58504 -1.9007,-2.22566 -1.406,-0.64062 -2.5564,-1.73624 -2.5564,-2.4347 0,-0.69847 -1.0125,-1.46911 -2.25,-1.71254 l -2.25,-0.4426 2.25,-0.74358 c 1.2375,-0.40897 2.25,-1.311 2.25,-2.00451 0,-0.69351 0.6218,-1.77698 1.3818,-2.40773 1.9103,-1.5854 1.3078,-6.85639 -0.9867,-8.63175 -1.7195,-1.33045 -1.7469,-1.58217 -0.2959,-2.71633 0.8796,-0.6875 1.5546,-1.51969 1.5,-1.8493 -0.1348,-0.81435 4.7131,-5.86182 5.6508,-5.88342 0.4125,-0.01 0.75,0.68428 0.75,1.54174 0,0.85746 -0.3463,1.34499 -0.7696,1.0834 -0.4232,-0.26159 -1.7638,1.04113 -2.979,2.89494 -1.4737,2.24826 -1.8462,3.59503 -1.1186,4.04471 0.5999,0.37079 1.378,0.21289 1.729,-0.3509 0.9476,-1.52198 5.3884,-1.91841 5.8645,-0.52351 0.2267,0.66421 -1.194,1.87875 -3.1571,2.69897 -1.9631,0.82022 -3.5692,2.18928 -3.5692,3.04234 0,1.25171 0.386,1.16507 2,-0.44897 2.2335,-2.23354 4,-2.60155 4,-0.83333 0,0.64166 -0.2918,0.87485 -0.6485,0.51818 -0.8745,-0.87455 -4.453,3.34191 -3.7717,4.44423 0.296,0.479 0.062,0.87092 -0.5208,0.87092 -0.5824,0 -1.0428,0.7875 -1.023,1.75 0.028,1.34287 0.608,1.05206 2.495,-1.25 l 2.4591,-3 0,2.61514 c 0,1.43833 -0.9277,3.80083 -2.0676,5.25 -2.8035,3.56403 -0.8928,3.33904 3.0684,-0.36132 1.7641,-1.6479 3.6799,-2.70421 4.2573,-2.34736 0.6459,0.39922 0.3183,1.15405 -0.8517,1.96208 -3.3058,2.2831 -4.4015,3.42705 -4.4015,4.5952 0,0.62419 1.0415,0.15645 2.3144,-1.03943 1.273,-1.19587 2.848,-2.17431 3.5,-2.17431 1.9961,0 1.3195,2.74952 -1.1556,4.69642 -2.2135,1.7411 -4.6588,5.34522 -4.6588,6.86645 0,0.38189 1.7622,-1.27603 3.916,-3.68426 3.154,-3.52648 4.1659,-4.13535 5.2,-3.12861 0.7062,0.6875 2.2924,1.25 3.525,1.25 3.445,0 3.6999,1.68147 0.4716,3.11047 -1.5958,0.70635 -2.6845,1.8416 -2.422,2.52558 0.2622,0.68336 0,2.05731 -0.5765,3.05321 -0.9442,1.62312 -1.0564,1.63553 -1.0837,0.11976 -0.017,-0.93004 -0.5569,-2.01636 -1.2003,-2.41405 -0.7956,-0.49166 -0.9576,-0.1696 -0.5063,1.00638 0.5395,1.4059 0.2672,1.60362 -1.4553,1.05691 -1.425,-0.45227 -1.8949,-0.30993 -1.4347,0.43461 0.3763,0.60892 1.4452,1.12144 2.3752,1.13893 1.4792,0.0278 1.4479,0.21566 -0.2501,1.5 -1.1717,0.8862 -1.4228,1.4682 -0.6335,1.4682 0.8557,0 1.1425,0.86419 0.8298,2.5 -0.2628,1.375 -0.1427,2.5 0.2669,2.5 1.3934,0 1.6309,4.60058 0.3016,5.84237 -0.7281,0.68007 -1.3034,2.23124 -1.2786,3.44706 0.039,1.9312 0.2238,1.83144 1.4587,-0.78943 1.3535,-2.87233 1.4088,-2.8936 1.2994,-0.5 -0.2675,5.85283 0.5819,6.99567 1.1149,1.5 0.3773,-3.89047 0.1446,-6.87897 -0.6619,-8.5 -1.7825,-3.58251 -1.5481,-6.30563 0.7092,-8.23831 2.709,-2.31952 3.0655,-1.19138 2.1959,6.94764 -0.4138,3.87213 -0.4264,7.88408 -0.028,8.91545 0.3983,1.03137 0.969,3.02974 1.2682,4.44081 0.2993,1.41108 1.3994,3.55169 2.4447,4.75692 1.0453,1.20524 2.1878,3.98822 2.539,6.18441 0.3512,2.19619 1.0721,3.99308 1.602,3.99308 0.6148,0 0.6105,-0.92812 -0.012,-2.5651 -0.5364,-1.4108 -0.9753,-3.6057 -0.9753,-4.87755 0,-1.27186 -0.675,-2.87266 -1.5,-3.55735 -1.8498,-1.53517 -2.1244,-14.97563 -0.3424,-16.75762 0.8768,-0.87682 0.8423,-1.5376 -0.1425,-2.72416 -1.6692,-2.01134 -0.541,-3.19953 1.4607,-1.53828 1.7674,1.4668 2.1306,5.5129 0.3989,4.4426 -0.7806,-0.4824 -0.9959,0.41391 -0.7027,2.92519 0.2325,1.99139 0.1724,3.7403 -0.1335,3.88648 -0.306,0.14619 -0.274,1.84079 0.071,3.76579 l 0.6272,3.5 0.1317,-3.19098 c 0.1975,-4.78973 2.0161,-5.02142 1.9502,-0.24848 -0.031,2.2558 0.3344,4.49286 0.8124,4.97125 0.4921,0.49252 0.7979,-1.74774 0.7051,-5.1649 -0.093,-3.43251 0.4726,-7.55806 1.3122,-9.56752 0.8118,-1.94306 1.2228,-4.19291 0.9132,-4.99966 -0.3451,-0.89939 -0.079,-1.29624 0.6878,-1.02585 0.6879,0.24253 2.3757,-0.33493 3.7507,-1.28326 2.9973,-2.06724 5.8549,-1.97092 9.3435,0.31493 1.4224,0.93196 3.0785,1.69447 3.6803,1.69447 0.6018,0 0.8161,0.45 0.4762,1 -0.3399,0.55 -0.2255,1 0.2543,1 0.4798,0 1.4746,1.53471 2.2106,3.41047 0.9519,2.426 1.7996,3.24861 2.9366,2.84972 0.8792,-0.30841 0.19,0.96938 -1.5315,2.83953 -4.1915,4.55343 -5.449,7.16259 -4.3155,8.95416 0.726,1.14763 0.918,1.02116 0.9302,-0.61275 0.01,-1.13238 0.6876,-2.93238 1.5093,-4 1.3771,-1.78929 1.4631,-1.56976 1.0995,2.80637 -0.2214,2.66433 7e-4,4.50331 0.506,4.19099 0.4953,-0.30609 0.9005,-2.52841 0.9005,-4.93849 0,-2.41008 0.3838,-4.61918 0.8529,-4.90911 0.4692,-0.28993 0.853,2.60851 0.853,6.44098 0,3.83247 -0.358,6.96813 -0.7955,6.96813 -0.4376,0 -0.6432,0.79101 -0.4571,1.7578 0.1862,0.9668 0.021,4.82325 -0.3665,8.5699 -0.5091,4.91875 -0.3501,7.27905 0.5723,8.49219 0.7025,0.92406 1.2916,2.46414 1.3091,3.4224 0.03,1.61975 4.9143,6.85813 6.0318,6.46845 0.275,-0.0959 1.5176,0.5384 2.7614,1.40956 2.3964,1.67854 11.8021,1.51528 13.6886,-0.23759 z m -7.45,-1.88271 c 0,-0.55 0.675,-1 1.5,-1 0.825,0 1.5,0.45 1.5,1 0,0.55 -0.675,1 -1.5,1 -0.825,0 -1.5,-0.45 -1.5,-1 z m -3.3913,-0.72459 c -0.3448,-0.34487 0.3556,-1.67292 1.5565,-2.95122 2.9314,-3.12041 0.831,-2.97676 -2.5707,0.17581 -1.4837,1.375 -3.0978,2.5 -3.587,2.5 -1.772,0 -2.0994,-2.05096 -0.5713,-3.5791 0.8601,-0.86007 1.5707,-2.09411 1.5791,-2.74233 0.01,-0.73222 0.3554,-0.64121 0.9134,0.24032 0.6338,1.00136 1.1078,-0.0286 1.6108,-3.5 0.392,-2.70539 1.2185,-5.55457 1.8366,-6.33151 0.8779,-1.1034 0.7963,-1.30432 -0.3725,-0.91787 -0.823,0.27211 -1.7655,2.15026 -2.0944,4.17366 -0.3289,2.02341 -0.9444,4.01145 -1.3678,4.41787 -0.4234,0.40643 -0.4366,-1.27581 -0.029,-3.7383 0.656,-3.96658 0.5645,-4.33122 -0.8022,-3.19689 -1.2861,1.06735 -1.6235,0.98039 -2.0277,-0.52275 -0.2667,-0.9917 -0.4336,-0.3406 -0.3709,1.4469 0.063,1.7875 0.4983,3.25 0.9679,3.25 1.3252,0 0.3787,5.2939 -1.0292,5.75621 -0.6875,0.22575 -1.2816,-0.41454 -1.3203,-1.42288 -0.064,-1.66987 -0.1517,-1.65501 -0.9838,0.16667 -0.8346,1.82712 -0.9054,1.7839 -0.819,-0.5 0.1472,-3.89341 -0.1945,-4.67731 -1.0898,-2.5 -0.8089,1.9672 -0.8353,1.96811 -1.6114,0.0554 -0.4392,-1.08238 -0.072,-6.83808 0.828,-12.98094 1.1027,-7.52603 1.2856,-11.24118 0.5749,-11.68038 -0.6281,-0.38816 -0.6686,-0.8749 -0.1021,-1.22503 0.517,-0.31954 0.739,-1.95079 0.4933,-3.625 -0.2811,-1.9153 -0.012,-3.04403 0.7257,-3.04403 0.6449,0 0.9137,0.41891 0.5972,0.9309 -0.3164,0.512 -0.07,1.24352 0.5487,1.6256 0.712,0.43999 0.8961,2.20686 0.5022,4.81909 -0.4388,2.90969 -0.3278,3.68263 0.3769,2.62441 0.5494,-0.825 1.0058,-2.9625 1.0142,-4.75 0.01,-1.7875 0.4653,-3.25 1.0153,-3.25 0.9796,0 1.4742,2.70042 1.1577,6.32069 -0.088,1.00138 0.5927,2.57254 1.5116,3.49146 1.561,1.56101 1.6328,1.40857 1.0924,-2.3207 -0.3182,-2.1953 -0.3562,-3.42615 -0.085,-2.73522 0.2716,0.69093 0.8791,1.01811 1.35,0.72707 0.4709,-0.29103 0.7699,1.16866 0.6645,3.24377 -0.1931,3.80237 1.678,5.49499 1.9599,1.77293 0.083,-1.1 0.1958,-2.5625 0.25,-3.25 0.054,-0.6875 0.5539,-1.25 1.1104,-1.25 0.6066,0 0.8,1.70175 0.4829,4.25 -0.4755,3.82033 -0.3026,3.59286 1.7098,-2.25 1.6283,-4.72784 2.3355,-5.87155 2.5938,-4.19496 0.1954,1.26778 -0.1482,2.91151 -0.7633,3.65276 -0.8293,0.99925 -0.8134,1.44942 0.062,1.7411 1.1586,0.38619 1.1104,0.63914 -1.8665,9.8011 -0.2681,0.825 -0.6076,2.4 -0.7545,3.5 -0.1469,1.1 -0.5311,3.8 -0.8538,6 -0.633,4.31608 -0.4158,3.69901 4.048,-11.5 0.8884,-3.025 1.8498,-6.175 2.1363,-7 0.2866,-0.825 0.5599,-1.815 0.6074,-2.2 0.1756,-1.42318 2.4446,-3.00565 3.4334,-2.39454 1.6119,0.99618 0.166,7.6109 -2.8623,13.09454 -1.5186,2.75 -3.0876,6.125 -3.4865,7.5 l -0.7253,2.5 2.1645,-2.26295 c 1.1905,-1.24462 1.8901,-2.70712 1.5546,-3.25 -0.3356,-0.5429 -0.1336,-0.98707 0.4489,-0.98707 0.5824,0 0.9805,-0.3375 0.8845,-0.75 -0.316,-1.3579 2.4496,-6.19799 3.2565,-5.69929 0.4343,0.26839 -0.3527,2.9831 -1.7488,6.03268 -1.3962,3.04958 -2.2799,5.80328 -1.9638,6.11934 0.316,0.31606 0.9847,-0.50026 1.4859,-1.81404 0.5012,-1.31378 2.2773,-5.20556 3.9468,-8.6484 2.4275,-5.00568 2.7854,-6.50997 1.7864,-7.50893 -0.6871,-0.68707 -1.0644,-1.80368 -0.8385,-2.48136 0.3021,-0.90631 0.823,-0.81988 1.9697,0.32684 1.412,1.41197 1.3849,2.07121 -0.2875,6.99107 -1.0155,2.98765 -2.1104,5.43209 -2.433,5.43209 -0.3227,0 -1.1833,2.6896 -1.9126,5.97689 -1.3017,5.86754 -2.8731,8.37374 -4.8957,7.8082 -0.5607,-0.1568 -3.03,1.38046 -5.4873,3.41614 -2.4573,2.03567 -4.75,3.41905 -5.0949,3.07418 z m 8.3913,-1.34684 c 0,-1.21094 1.7092,-2.93674 4.4135,-4.45638 1.006,-0.56529 2.6296,-3.61509 3.608,-6.77733 0.9785,-3.16224 2.329,-6.41223 3.0012,-7.22219 0.6722,-0.80997 0.9756,-1.47267 0.6743,-1.47267 -0.3014,0 0.3384,-2.3625 1.4217,-5.25 1.0833,-2.8875 2.2272,-6.0375 2.5421,-7 0.3149,-0.9625 0.9417,-1.75 1.393,-1.75 1.179,0 -0.1044,7.13628 -1.7036,9.47251 -1.6449,2.40304 -1.7279,3.61143 -0.2252,3.27749 0.6187,-0.1375 1.3312,0.3125 1.5833,1 0.2521,0.6875 -0.015,1.25 -0.5936,1.25 -0.5786,0 -0.849,0.5625 -0.6011,1.25 0.248,0.6875 -0.4311,2.375 -1.5091,3.75 -1.5311,1.95286 -1.9649,2.12992 -1.9823,0.80902 -0.012,-0.93004 0.4278,-1.9691 0.9778,-2.30902 0.55,-0.33992 1,-1.06803 1,-1.61803 0,-1.98026 -2.0326,0.316 -3.9157,4.42352 -2.1277,4.64117 -1.9011,6.08798 0.4888,3.12151 1.1674,-1.44894 1.6875,-1.59932 2.0966,-0.60618 0.3609,0.87594 1.0593,0.37072 2.0736,-1.5 4.008,-7.392 7.1741,-14.33381 7.6944,-16.87034 1.1224,-5.47234 5.5623,-12.78869 5.5623,-9.16605 0,2.22233 -3.5147,11.70723 -6.5645,17.71557 -1.5356,3.025 -2.5992,5.56526 -2.3637,5.64501 0.2355,0.0798 -0.429,1.09226 -1.4768,2.25 -1.9904,2.19936 -1.8187,2.51179 0.8232,1.498 0.87,-0.33384 1.5887,-1.34634 1.5971,-2.25 0.011,-1.21995 0.2233,-1.31531 0.823,-0.37035 0.5211,0.82098 1.2142,-0.48844 1.9531,-3.68941 0.63,-2.72913 2.2846,-7.32355 3.677,-10.20981 1.3924,-2.88626 2.5316,-5.83853 2.5316,-6.56059 0,-0.72207 0.6269,-1.31285 1.393,-1.31285 1.42,0 2.6142,-1.97562 3.2771,-5.42152 0.4278,-2.2236 2.1907,-4.57848 3.4276,-4.57848 1.4126,0 -6.5,18.10219 -8.224,18.81461 -0.4188,0.17303 -0.5135,0.96053 -0.2105,1.75 0.3029,0.78946 0.1276,1.43539 -0.3895,1.43539 -0.5172,0 -0.9404,0.675 -0.9404,1.5 0,2.24603 1.5812,1.80743 2.7039,-0.75 1.5495,-3.52987 4.9978,-9.15012 6.2889,-10.25 0.6457,-0.55 2.0739,-2.76525 3.1739,-4.92279 1.2169,-2.38688 2.1178,-3.31347 2.3009,-2.36657 0.1654,0.85592 -1.0948,4.1359 -2.8006,7.28885 -1.7058,3.15296 -2.9147,5.91946 -2.6864,6.14778 0.428,0.42796 3.6613,-3.98915 4.8658,-6.64727 0.529,-1.16733 0.6953,-1.0719 0.75,0.43028 0.058,1.58199 -7.4781,14.56972 -8.4535,14.56972 -0.159,0 -0.1012,-1.0125 0.1283,-2.25 0.3511,-1.89296 0.2132,-1.82335 -0.8686,0.43868 -0.7073,1.47877 -2.5097,4.17877 -4.0054,6 -1.4957,1.82123 -3.3827,4.21132 -4.1932,5.31132 -0.9604,1.30337 -1.4848,1.52196 -1.5055,0.62756 -0.025,-1.08793 -0.3337,-1.12191 -1.488,-0.16391 -0.8009,0.66469 -1.9592,0.89764 -2.574,0.51767 -0.6148,-0.37997 -2.1426,0.27179 -3.395,1.44836 -1.2524,1.17657 -3.9382,2.28828 -5.9685,2.47046 -2.0303,0.18218 -4.7138,1.29168 -5.9633,2.46555 -2.5101,2.35812 -3.643,2.68864 -3.643,1.06288 z m -55,-7.67857 c 0,-0.77917 0.5344,-1.23854 1.1875,-1.02083 1.8131,0.60436 2.069,2.4375 0.3403,2.4375 -0.8403,0 -1.5278,-0.6375 -1.5278,-1.41667 z m 0,-3.23095 c 0,-0.53952 -1.125,-1.2633 -2.5,-1.60841 -1.375,-0.3451 -2.5,-0.95367 -2.5,-1.35238 0,-1.72603 1.4282,-1.8217 4.6019,-0.30828 3.4589,1.64945 4.6204,4.25002 1.8981,4.25002 -0.825,0 -1.5,-0.44143 -1.5,-0.98095 z m 71,-11.8767 c 0,-0.56337 0.45,-1.30243 1,-1.64235 0.55,-0.33992 1,-1.48237 1,-2.53878 0,-1.05641 0.7356,-3.75924 1.6347,-6.00628 1.2335,-3.08271 1.9085,-3.79336 2.75,-2.89523 0.8238,0.87915 0.7886,1.3101 -0.1347,1.64862 -0.6875,0.25209 -1.25,1.29154 -1.25,2.3099 0,1.01837 -0.5248,3.11837 -1.1662,4.66667 -0.6414,1.54831 -1.2039,3.2276 -1.25,3.73177 -0.1175,1.2852 -2.5838,1.97789 -2.5838,0.72568 z m -8.5326,-2.45957 c -0.4079,-1.01133 -0.238,-2.31218 0.3831,-2.93333 1.6463,-1.6463 2.326,-0.38692 1.2711,2.35537 -0.8286,2.15432 -0.995,2.21244 -1.6542,0.57796 z m 5.3247,-6.22405 c -0.7525,-0.75244 1.4088,-6.45873 2.4462,-6.45873 0.8745,0 -0.076,5.03128 -1.1841,6.26667 -0.3781,0.42166 -0.9461,0.50809 -1.2621,0.19206 z m -67.5601,-6.45873 c 0,-1.925 0.2058,-2.7125 0.4573,-1.75 0.2515,0.9625 0.2515,2.5375 0,3.5 -0.2515,0.9625 -0.4573,0.175 -0.4573,-1.75 z m 45.8469,0.25 c 0.045,-1.56739 0.3178,-2.10494 0.6343,-1.25 0.3054,0.825 1,2.0625 1.5435,2.75 0.7055,0.89241 0.5241,1.25 -0.6343,1.25 -1.1224,0 -1.5981,-0.84754 -1.5435,-2.75 z m 23.1086,-4.3125 c 0.2406,-0.72187 1.0281,-1.50938 1.75,-1.75 0.75,-0.25 1.125,0.125 0.875,0.875 -0.2406,0.72187 -1.0281,1.50937 -1.75,1.75 -0.75,0.25 -1.125,-0.125 -0.875,-0.875 z m -69.496,-0.6875 c -0.2346,-0.4125 -0.456,-2.2125 -0.4921,-4 -0.044,-2.18533 0.4038,-3.25 1.3675,-3.25 0.7882,0 1.4331,0.45 1.4331,1 0,0.55 -0.3721,1 -0.8268,1 -0.4548,0 -0.6287,1.35 -0.3865,3 0.4131,2.81447 -0.1345,3.93934 -1.0952,2.25 z m 89.3085,-7.75 c 0,-1.925 0.45,-3.5 1,-3.5 0.55,0 1,0.51289 1,1.13976 0,0.62686 0.7437,1.6836 1.6528,2.34829 1.9885,1.45407 0.9855,3.51195 -1.7118,3.51195 -1.5516,0 -1.941,-0.70214 -1.941,-3.5 z m 9.382,-5.69098 c -0.4049,-0.65504 -0.2064,-1.36754 0.4409,-1.58334 0.6474,-0.21579 1.1771,-1.02985 1.1771,-1.80901 0,-0.97866 1.1989,-1.41667 3.8776,-1.41667 2.2267,0 4.4075,-0.63859 5.1224,-1.5 0.6847,-0.825 1.8686,-1.5 2.6309,-1.5 1.1436,0 1.1659,0.39358 0.1276,2.25 -1.7521,3.1324 -2.776,3.71712 -6.5399,3.73469 -1.9832,0.009 -3.5091,0.60874 -3.857,1.51531 -0.6923,1.80414 -1.9735,1.93701 -2.9796,0.30902 z m -20.382,-1.70203 c 0,-1.08325 2.4691,-2.10699 5.0818,-2.10699 2.3178,0 2.5356,1.54911 0.3364,2.39301 -2.3415,0.89853 -5.4182,0.73612 -5.4182,-0.28602 z m -36.5,-1.32446 c -1.1,-0.63414 -2.5946,-1.74463 -3.3214,-2.46776 -0.7268,-0.72312 -1.9643,-1.31477 -2.75,-1.31477 -0.7857,0 -1.4286,-0.43588 -1.4286,-0.96862 0,-0.53273 -0.5625,-0.75276 -1.25,-0.48894 -0.8841,0.33926 -1.25,-0.81727 -1.25,-3.95082 0,-3.31267 -0.6117,-5.08157 -2.4243,-7.01106 -1.3334,-1.41931 -2.8363,-2.58056 -3.3397,-2.58056 -2.1739,0 -4.6708,-4.67714 -4.7027,-8.80902 -0.018,-2.36996 0.3657,-4.06241 0.8534,-3.76101 1.1586,0.71607 2.6817,-1.27565 3.4532,-4.51574 0.4429,-1.85984 -0.08,-3.52863 -1.8621,-5.94428 -1.3628,-1.84718 -2.4778,-4.17108 -2.4778,-5.16423 0,-0.99315 -0.3375,-1.80923 -0.75,-1.81352 -1.2354,-0.0128 -3.1478,-4.93732 -2.1556,-5.55054 0.4981,-0.30783 0.9056,-1.41945 0.9056,-2.47026 0,-1.05081 0.9066,-3.52476 2.0147,-5.49766 1.7997,-3.20406 1.853,-3.74885 0.5,-5.10185 -1.3955,-1.39551 -2.1173,-4.37189 -1.0602,-4.37189 0.25,0 1.6,1.14545 3,2.54545 2.7883,2.78827 3.4,6.45455 1.0769,6.45455 -0.8474,0 -1.2416,0.59171 -0.9318,1.39885 0.2952,0.76937 0.056,1.69592 -0.5314,2.05902 -0.5875,0.36309 -1.0682,1.56016 -1.0682,2.66016 0,1.1 -0.45,1.72189 -1,1.38197 -0.55,-0.33992 -1,0.0835 -1,0.94098 0,0.85746 0.366,1.55902 0.8134,1.55902 0.8437,0 6.1866,12.87666 6.1866,14.90988 0,0.63426 -0.9117,3.85948 -2.026,7.16715 -1.8161,5.39117 -1.8679,6.17195 -0.5,7.53988 0.8393,0.83927 1.526,1.97036 1.526,2.51354 0,0.54317 0.3811,0.75203 0.847,0.46412 1.1002,-0.67995 6.3946,4.83049 5.5003,5.72476 -0.3743,0.37437 -0.1556,0.68067 0.486,0.68067 0.6417,0 1.1134,0.3375 1.0483,0.75 -0.577,3.65441 0.5046,5.53896 4.7095,8.20566 2.5252,1.60139 5.2708,2.65082 6.1015,2.33207 1.0633,-0.40804 1.4062,-0.043 1.1588,1.2335 -0.4488,2.31549 -1.8289,2.71552 -4.3514,1.2613 z m 2.7049,-5.58288 c 0.2377,-1.21633 1.1247,-1.60615 3.1189,-1.37084 1.5327,0.18084 3.917,-0.41177 5.2984,-1.31691 1.6139,-1.0575 2.9345,-1.316 3.6947,-0.72324 3.4614,2.69892 10.5009,1.83851 14.6911,-1.79564 3.1206,-2.70643 4.1824,-2.50502 2.7991,0.53096 -1.0731,2.35527 -2.6471,3.1892 -7.3117,3.87382 -1.0378,0.15232 -2.0555,0.78255 -2.2615,1.40051 -0.4011,1.20316 -5.9159,0.5567 -7.8077,-0.91523 -0.6045,-0.47038 -1.5789,-0.3304 -2.2296,0.32033 -0.6357,0.6357 -3.2186,1.27733 -5.7398,1.42585 -3.8576,0.22724 -4.5314,6.9e-4 -4.2519,-1.42961 z m -24.2049,-3.69965 c 0,-0.825 0.45,-1.5 1,-1.5 0.55,0 1,0.675 1,1.5 0,0.825 -0.45,1.5 -1,1.5 -0.55,0 -1,-0.675 -1,-1.5 z m -51.393,-2.08179 c -1.0834,-2.82324 -0.6878,-6.61242 0.643,-6.15859 0.6875,0.23446 1.116,1.35709 0.9521,2.49474 -0.1638,1.13765 0.1811,2.36442 0.7664,2.72615 1.1354,0.70177 0.4713,2.51949 -0.9205,2.51949 -0.4587,0 -1.1072,-0.7118 -1.441,-1.58179 z m 34.393,-1.81122 c 0,-0.21616 0.675,-0.65203 1.5,-0.96862 0.825,-0.31658 1.5,-0.13972 1.5,0.39301 0,0.53274 -0.675,0.96862 -1.5,0.96862 -0.825,0 -1.5,-0.17686 -1.5,-0.39301 z m 71.5643,-1.90012 c 0.3755,-0.98622 0.9347,-1.54122 1.2426,-1.23333 0.3079,0.30789 6e-4,1.11479 -0.6828,1.79313 -0.9876,0.98026 -1.1025,0.8654 -0.5598,-0.5598 z m 30.7854,-7.70687 c 0.3427,-1.375 0.6291,-3.0625 0.6366,-3.75 0.019,-1.72195 1.9512,-1.57638 2.6322,0.19828 0.3057,0.79655 -0.4449,2.48405 -1.668,3.75 l -2.2237,2.30172 0.6229,-2.5 z m -103.8497,-3 c 0.3399,-0.55 1.0415,-1 1.559,-1 0.5176,0 0.941,0.45 0.941,1 0,0.55 -0.7016,1 -1.559,1 -0.8575,0 -1.2809,-0.45 -0.941,-1 z m 79.5,-1.87756 c 0,-0.48265 0.675,-1.43775 1.5,-2.12244 0.825,-0.68469 1.5017,-0.85229 1.5037,-0.37245 0,0.47985 0.9499,-0.67953 2.1063,-2.5764 1.4751,-2.41982 2.2035,-5.55269 2.441,-10.5 0.1862,-3.87813 0.3634,-7.38865 0.3938,-7.80115 0.03,-0.4125 0.4579,-0.75 0.9502,-0.75 1.576,0 1.7893,8.31965 0.359,14 -0.8863,3.51971 -2.422,6.49015 -4.2653,8.25 -2.8721,2.74223 -4.9887,3.53666 -4.9887,1.87244 z m -83,-17.74489 c 0,-1.32879 0.2715,-1.39712 1.5,-0.37755 0.825,0.68469 1.5,1.41479 1.5,1.62244 0,0.20766 -0.675,0.37756 -1.5,0.37756 -0.825,0 -1.5,-0.7301 -1.5,-1.62245 z m 83.1048,-24.43839 c -3.0044,-1.23194 -2.6457,-1.53114 2.6454,-2.20645 2.7389,-0.34956 4.0278,-0.18259 3.6248,0.46955 -0.3958,0.64033 0.1985,0.75048 1.6181,0.29993 1.6505,-0.52384 2.1257,-0.3539 1.7979,0.64287 -0.5445,1.65566 -6.4119,2.13668 -9.6862,0.7941 z m -78.1048,-4.82113 c 0,-0.55 0.45,-1.27811 1,-1.61803 0.55,-0.33992 1,-0.16803 1,0.38197 0,0.55 -0.45,1.27811 -1,1.61803 -0.55,0.33992 -1,0.16803 -1,-0.38197 z m 50.3384,-4.92058 c -3.129,-3.62983 -3.183,-3.64809 -5.25,-1.77749 -1.6,1.44803 -2.0884,1.55496 -2.0884,0.45727 0,-0.78801 0.883,-2.1888 1.9622,-3.11287 1.8701,-1.60121 2.1435,-1.50598 5.8214,2.02776 2.2406,2.15279 4.6115,3.56298 5.6529,3.36238 1.1483,-0.22117 1.6342,0.1387 1.3503,1 -0.8636,2.62019 -4.2753,1.72377 -7.4484,-1.95705 z m 20.3983,-0.56864 c -4.2722,-3.26104 -4.4567,-3.30687 -5.6459,-1.40262 -1.9837,3.1764 -2.4588,1.20537 -0.5062,-2.1001 1.6787,-2.84184 1.8682,-2.91259 3.3474,-1.24982 0.8624,0.9694 2.3555,2.05469 3.318,2.41176 0.9625,0.35706 1.75,1.13988 1.75,1.7396 0,0.59972 0.45,0.81229 1,0.47237 0.55,-0.33992 1,-0.1556 1,0.4096 0,0.5652 0.675,0.76861 1.5,0.45203 0.9498,-0.36449 1.5,0.0138 1.5,1.03138 0,2.50511 -2.4497,1.9101 -7.2633,-1.7642 z m -34.5492,-4.69131 c 0.2406,-0.72188 1.0281,-1.50938 1.75,-1.75 0.75,-0.25 1.125,0.125 0.875,0.875 -0.2406,0.72187 -1.0281,1.50937 -1.75,1.75 -0.75,0.25 -1.125,-0.125 -0.875,-0.875 z" id="path2830"/>
  </g>
</svg>